<?xml version="1.0" standalone="no"?>
<!DOCTYPE svg PUBLIC "-//W3C//DTD SVG 20010904//EN"
 "http://www.w3.org/TR/2001/REC-SVG-20010904/DTD/svg10.dtd">
<svg version="1.0" xmlns="http://www.w3.org/2000/svg"
 width="1185.000000pt" height="1493.000000pt" viewBox="0 0 1185.000000 1493.000000"
 preserveAspectRatio="xMidYMid meet">

<g transform="translate(0.000000,1493.000000) scale(0.100000,-0.100000)"
fill="#000000" stroke="none">
<path d="M6113 14904 c4 -7 -9 -11 -36 -11 -23 0 -60 -3 -82 -7 -57 -10 -72
-12 -142 -21 -40 -4 -61 -11 -56 -18 3 -6 1 -7 -6 -3 -15 9 -123 -22 -116 -33
3 -5 -4 -7 -14 -4 -29 7 -107 -32 -142 -72 -31 -35 -55 -42 -28 -8 12 16 12
17 -1 7 -8 -6 -77 -37 -154 -69 -95 -40 -140 -64 -144 -77 -2 -10 -8 -18 -12
-18 -4 0 -18 -11 -31 -25 -13 -13 -29 -25 -34 -25 -6 0 -23 -14 -38 -31 -15
-17 -27 -27 -27 -23 0 4 -7 -1 -16 -12 -8 -10 -12 -13 -9 -5 5 9 -1 7 -19 -4
-15 -10 -25 -23 -23 -29 2 -6 -5 -19 -15 -28 -10 -10 -18 -15 -18 -12 0 4 -11
-5 -25 -20 -14 -15 -23 -32 -19 -37 3 -5 0 -8 -8 -7 -7 2 -12 -3 -10 -10 1 -8
-2 -11 -8 -7 -9 6 -132 -96 -210 -174 -45 -45 -120 -140 -120 -151 0 -5 -10
-24 -23 -43 -25 -38 -142 -323 -152 -372 -3 -16 -9 -66 -12 -110 -6 -97 28
-322 56 -369 112 -187 139 -267 142 -424 1 -46 8 -122 16 -170 8 -48 15 -106
17 -129 1 -23 9 -50 18 -60 8 -10 18 -27 22 -37 3 -10 9 -16 13 -13 3 4 12 2
19 -4 8 -6 20 -9 28 -6 19 8 50 -28 42 -48 -8 -21 3 -66 15 -59 5 3 9 0 9 -6
0 -7 -6 -10 -14 -7 -7 3 -18 1 -24 -5 -10 -10 -52 26 -52 44 0 12 -41 50 -47
44 -3 -3 -11 2 -18 11 -8 10 -28 16 -56 17 -39 1 -44 -2 -47 -22 -2 -12 3 -44
12 -70 8 -26 18 -83 21 -127 9 -109 11 -120 38 -198 16 -46 26 -63 31 -52 3 9
9 14 13 12 5 -3 7 18 5 46 -2 29 2 95 8 147 6 52 11 100 12 107 2 13 38 -6 38
-20 0 -4 5 -5 10 -2 14 9 12 -8 -2 -24 -11 -11 -9 -12 9 -7 16 5 25 2 33 -14
9 -16 7 -24 -10 -43 -66 -72 -92 -152 -59 -181 11 -9 31 -17 44 -18 14 -1 28
-10 31 -20 3 -10 11 -18 18 -18 17 0 36 -43 36 -80 0 -20 8 -35 25 -46 25 -16
35 -54 14 -54 -5 0 -7 -5 -4 -10 4 -6 1 -17 -5 -25 -16 -19 -5 -47 17 -43 14
2 17 -3 15 -27 -2 -23 -1 -27 7 -15 6 8 11 13 11 10 0 -3 3 -32 7 -65 3 -33 9
-67 13 -75 12 -25 -1 -91 -19 -97 -9 -3 -24 -13 -33 -20 -9 -8 -22 -12 -27 -8
-6 3 -14 -1 -17 -9 -6 -16 -16 -16 -108 2 -33 6 -42 14 -64 57 -21 38 -27 64
-27 115 0 36 4 73 9 83 8 17 4 17 -60 11 -71 -7 -186 -56 -216 -92 -38 -46
-38 -65 2 -148 32 -68 38 -92 43 -171 6 -91 6 -92 46 -132 23 -23 41 -49 42
-58 0 -10 4 -42 8 -71 8 -53 8 -53 -34 -90 -51 -46 -79 -114 -69 -169 7 -41
87 -173 104 -173 5 0 10 -7 10 -15 0 -8 -7 -15 -15 -15 -16 0 -103 -46 -124
-66 -11 -10 -12 -19 -3 -41 5 -15 13 -36 16 -45 5 -16 11 -15 61 13 50 27 84
32 70 9 -3 -5 -93 -54 -199 -109 -153 -80 -203 -101 -235 -101 -31 0 -43 5
-51 21 -11 19 -13 19 -35 5 -13 -9 -68 -25 -122 -37 -54 -12 -107 -26 -118
-32 -11 -6 -31 -12 -45 -14 -14 -1 -31 -3 -37 -4 -7 -1 -15 -10 -18 -20 -4
-11 -12 -16 -20 -12 -8 3 -12 10 -9 15 4 6 -2 5 -14 -1 -11 -6 -29 -11 -39
-11 -10 -1 -35 -9 -56 -19 -33 -15 -36 -19 -20 -25 16 -7 15 -10 -11 -29 -17
-12 -36 -22 -44 -23 -8 -2 -19 -7 -24 -12 -12 -12 -19 -54 -7 -47 5 4 9 15 9
26 0 14 7 19 27 19 15 0 38 10 51 23 l24 22 -6 -25 c-4 -14 -4 -20 1 -13 5 6
22 17 38 24 23 9 26 13 12 16 -9 3 -15 9 -12 14 4 5 -4 9 -16 9 -12 0 -20 3
-16 6 3 4 26 0 51 -7 44 -13 45 -14 28 -33 -16 -18 -16 -18 4 -8 12 6 35 27
52 46 17 20 33 32 36 27 3 -5 -2 -12 -11 -15 -12 -5 -13 -10 -5 -18 8 -8 17
-3 34 16 13 15 34 28 48 30 14 1 32 6 40 11 13 8 13 6 1 -8 -7 -9 -20 -17 -27
-17 -8 0 -14 -7 -14 -15 0 -11 9 -13 38 -9 20 3 44 6 52 6 8 1 18 6 22 12 5 7
8 7 8 -2 0 -7 5 -10 12 -6 7 4 8 3 4 -4 -4 -7 -18 -12 -32 -12 -57 0 -302 -70
-399 -114 -16 -8 -51 -24 -77 -36 -26 -12 -49 -20 -51 -18 -1 2 -15 -5 -30
-15 -15 -9 -27 -13 -27 -8 0 5 18 16 40 25 22 9 40 21 40 28 0 8 -3 9 -8 3 -4
-5 -14 -11 -22 -13 -42 -9 -78 -34 -73 -50 5 -11 2 -14 -10 -9 -8 3 -21 -1
-27 -9 -7 -8 -19 -14 -26 -14 -8 0 -14 -4 -14 -10 0 -5 -6 -7 -13 -4 -8 3 -25
0 -40 -5 -17 -7 -28 -7 -32 -1 -4 6 3 10 14 10 12 0 21 4 21 10 0 6 -9 6 -22
1 -13 -5 -22 -16 -22 -25 1 -9 -5 -16 -14 -16 -9 0 -31 -5 -49 -12 -27 -10
-38 -10 -54 0 -19 12 -19 11 -9 -8 9 -17 8 -20 -8 -20 -10 0 -24 -6 -31 -12
-11 -10 -14 -10 -18 0 -3 6 -9 12 -15 12 -6 0 -7 -7 -4 -16 4 -11 1 -14 -13
-9 -12 3 -21 0 -25 -10 -3 -8 -11 -15 -17 -15 -8 0 -8 4 1 15 7 8 9 15 4 15
-12 -1 -49 -29 -49 -38 0 -4 -6 -6 -12 -6 -7 1 -13 -3 -13 -8 0 -6 -7 -8 -15
-4 -22 8 -59 -11 -70 -37 -6 -11 -17 -22 -25 -24 -11 -3 -11 -1 3 10 35 29 15
27 -43 -4 -33 -17 -57 -35 -54 -40 2 -5 -7 -11 -21 -15 -14 -3 -25 -10 -25
-16 0 -5 -8 -7 -19 -3 -10 3 -24 -1 -31 -10 -7 -8 -16 -13 -20 -10 -4 3 -13
-2 -20 -10 -7 -8 -9 -15 -4 -15 4 0 -1 -6 -11 -14 -11 -8 -25 -11 -33 -8 -8 2
-26 -7 -40 -22 -55 -56 -104 -87 -118 -75 -8 6 -14 7 -14 2 0 -5 -17 -19 -38
-31 -21 -11 -47 -31 -58 -43 -19 -22 -19 -22 1 -15 16 6 17 5 8 -5 -10 -10
-16 -9 -29 2 -14 11 -18 11 -28 -1 -6 -8 -27 -27 -46 -42 -48 -36 -100 -85
-101 -95 0 -4 -19 -24 -42 -43 l-42 -34 40 42 c21 23 37 42 34 42 -2 0 -31
-28 -64 -62 -33 -34 -49 -53 -35 -43 l25 20 -24 -27 c-13 -15 -28 -25 -33 -22
-5 3 -7 0 -6 -7 2 -7 -2 -13 -9 -14 -12 0 -118 -132 -198 -246 -27 -40 -78
-101 -112 -137 -34 -36 -60 -69 -58 -73 3 -4 -2 -10 -11 -13 -8 -3 -12 -10 -9
-16 3 -5 0 -10 -8 -10 -22 0 -47 -34 -47 -63 0 -20 5 -27 19 -27 11 0 26 -3
35 -6 29 -11 17 -20 -22 -16 -27 3 -42 -1 -52 -13 -7 -9 -21 -67 -30 -128 -10
-66 -38 -179 -69 -277 -29 -91 -56 -183 -61 -205 -5 -22 -30 -121 -55 -220
-25 -99 -48 -196 -51 -215 -3 -19 -10 -55 -16 -80 -5 -25 -12 -54 -14 -65 -2
-11 -6 -29 -8 -40 -3 -11 -39 -180 -80 -375 -41 -195 -93 -431 -116 -525 -23
-93 -46 -192 -50 -220 -5 -27 -13 -70 -19 -95 -10 -44 -59 -291 -67 -340 -2
-14 -12 -70 -23 -125 -10 -55 -21 -116 -24 -135 -3 -19 -12 -71 -21 -115 -38
-196 -97 -687 -102 -845 -2 -52 -4 -97 -5 -100 -3 -8 -6 -48 -17 -230 -9 -152
-16 -193 -48 -310 -36 -131 -37 -141 -39 -315 -2 -171 -4 -185 -32 -275 -45
-140 -76 -361 -78 -560 -1 -112 -7 -186 -18 -230 -9 -36 -21 -128 -27 -205
-15 -192 -24 -262 -43 -320 -31 -95 -46 -221 -52 -450 -6 -225 -16 -325 -55
-590 -12 -83 -20 -206 -23 -342 l-4 -213 4938 0 4937 0 -44 74 c-24 40 -44 78
-44 85 0 6 -4 19 -10 29 -21 37 -59 139 -66 177 -4 22 -13 58 -21 80 -7 21
-18 82 -23 134 -6 53 -15 100 -20 105 -25 25 10 126 44 126 33 0 40 -29 37
-161 -2 -123 -1 -129 18 -129 28 0 36 -18 17 -39 -19 -20 -22 -56 -4 -45 8 5
9 -2 5 -25 -4 -18 -3 -30 2 -26 5 3 12 -9 16 -27 14 -68 37 -127 48 -124 7 2
9 1 5 -1 -11 -6 -10 -17 3 -50 8 -22 12 -24 19 -13 8 12 10 11 10 -6 0 -31 25
-86 35 -77 4 5 5 0 2 -10 -5 -12 1 -30 14 -48 l20 -29 815 0 814 0 0 28 c0 15
4 33 8 40 14 21 62 -3 75 -38 11 -30 12 -30 89 -30 90 0 93 6 33 59 -117 105
-183 203 -186 274 -2 56 11 325 17 358 3 14 -3 71 -13 125 -18 104 -20 212 -4
243 13 23 17 134 7 191 -5 25 -19 65 -32 90 -24 45 -33 120 -14 120 6 0 10 -4
10 -10 0 -5 8 -10 18 -10 15 1 14 3 -4 18 -16 13 -23 34 -27 82 -4 36 -11 81
-17 100 -11 36 -5 90 10 90 4 0 13 -6 19 -14 14 -16 51 -28 51 -16 0 5 -6 13
-14 17 -19 11 -35 45 -42 90 -3 21 -12 52 -19 69 -16 39 -14 93 9 203 26 128
10 284 -40 380 -8 14 -14 31 -14 37 0 6 -11 21 -25 34 -28 27 -34 84 -12 114
11 15 17 17 35 7 l22 -12 -16 41 c-12 31 -15 57 -10 113 13 147 15 138 -26
159 -31 16 -40 28 -52 73 -9 29 -16 60 -16 69 0 9 -11 39 -25 66 -42 83 -33
110 26 80 21 -11 42 -20 46 -20 4 0 7 89 5 197 -3 216 -33 446 -74 576 -18 54
-19 70 -9 76 10 7 10 9 -2 14 -8 3 -19 25 -25 50 -7 25 -18 47 -25 50 -8 3
-17 21 -20 40 -3 20 -22 68 -42 108 -21 43 -35 82 -32 96 2 12 0 24 -5 25 -10
4 -37 90 -45 146 -3 19 1 45 8 59 10 19 10 28 1 43 -6 10 -16 49 -22 87 -14
88 -56 228 -82 273 -36 61 -68 189 -69 270 -1 80 -28 159 -102 301 -42 80 -66
194 -48 228 10 19 18 21 44 16 18 -4 36 -11 42 -16 29 -28 92 5 80 42 -7 21
-7 21 -19 -2 -7 -15 -20 -24 -36 -24 -56 0 -105 143 -105 310 0 130 9 175 36
175 15 0 19 5 15 18 -19 68 -52 211 -110 482 -53 244 -117 537 -126 575 -42
179 -55 250 -66 360 -11 117 -30 173 -93 269 -32 50 -74 118 -91 151 -40 72
-186 324 -222 380 -82 128 -185 232 -326 327 -74 50 -670 358 -693 358 -6 0
-25 6 -42 14 -18 8 -40 16 -50 20 -9 3 -16 11 -15 18 2 7 -26 28 -62 46 -36
18 -104 55 -152 82 -49 28 -91 50 -94 50 -9 0 -164 104 -199 134 l-30 25 33
60 c52 97 41 154 -49 246 -57 59 -129 144 -129 154 0 11 -108 120 -158 159
-23 18 -47 30 -54 26 -7 -4 -8 -3 -4 5 4 6 -4 24 -18 41 -13 16 -34 56 -46 87
-12 32 -30 72 -41 89 -10 17 -15 34 -11 38 4 4 0 6 -8 4 -9 -2 -14 3 -12 11 3
12 0 12 -12 1 -9 -7 -16 -19 -16 -26 0 -8 -4 -14 -10 -14 -17 0 -11 22 13 49
12 14 18 23 13 19 -13 -11 -40 21 -70 82 -40 81 -73 139 -102 177 l-25 34 22
67 c12 37 32 87 44 112 12 25 34 83 50 129 27 84 27 86 22 285 -6 209 -14 345
-22 383 -3 12 -1 24 4 28 6 3 6 17 1 35 -5 17 -5 32 0 35 5 3 13 -9 18 -27 l9
-33 15 30 c8 17 18 71 22 120 8 112 8 114 36 204 18 58 20 75 10 81 -15 9 -42
2 -35 -9 2 -4 -4 -15 -15 -24 -17 -14 -20 -14 -32 0 -16 19 -11 55 8 66 10 5
12 16 8 29 -4 13 -2 18 4 14 6 -4 10 1 10 11 -1 10 4 54 10 98 7 44 14 172 16
285 3 172 8 218 26 285 36 132 42 175 38 280 -4 82 -11 119 -42 207 -31 91
-119 267 -155 310 -42 51 -85 116 -91 137 -5 18 -13 26 -28 25 -12 0 -22 2
-22 6 0 8 -31 49 -58 75 -16 16 -19 24 -10 28 9 3 3 12 -15 27 -19 15 -27 29
-24 42 4 14 -2 22 -19 28 -13 5 -24 16 -24 23 0 19 -301 328 -318 327 -8 0
-10 -5 -6 -12 4 -7 -7 -1 -25 13 -36 26 -125 77 -181 104 -19 10 -48 27 -65
39 -30 21 -74 46 -82 46 -2 0 -1 -5 2 -10 4 -6 -5 -5 -19 2 -14 6 -26 15 -26
19 0 4 -15 11 -32 14 -18 4 -39 12 -46 17 -16 13 -254 24 -492 22 -156 -1
-188 2 -204 15 -11 9 -17 11 -13 5z m434 -30 c-3 -3 -12 -4 -19 -1 -8 3 -5 6
6 6 11 1 17 -2 13 -5z m-417 -18 c0 -2 -7 -7 -16 -10 -8 -3 -12 -2 -9 4 6 10
25 14 25 6z m-247 -59 c-2 -4 -17 -6 -33 -5 -37 3 -31 13 8 13 17 0 28 -3 25
-8z m-88 -27 c-3 -5 -16 -10 -28 -10 -18 0 -19 2 -7 10 20 13 43 13 35 0z
m-55 -14 c0 -11 -19 -15 -25 -6 -3 5 1 10 9 10 9 0 16 -2 16 -4z m-355 -126
c-3 -5 -12 -10 -18 -10 -7 0 -6 4 3 10 19 12 23 12 15 0z m100 -40 c-3 -5 -12
-10 -18 -10 -7 0 -6 4 3 10 19 12 23 12 15 0z m495 -12 c22 -13 40 -26 40 -31
0 -9 -76 29 -85 43 -9 15 2 12 45 -12z m-545 3 c3 -5 2 -12 -3 -15 -5 -3 -9 1
-9 9 0 17 3 19 12 6z m-220 -31 c-3 -5 -12 -10 -18 -10 -7 0 -6 4 3 10 19 12
23 12 15 0z m17 -32 c-15 -18 -72 -51 -72 -41 0 4 17 18 38 30 43 26 48 27 34
11z m63 -88 c-21 -23 -35 -26 -35 -7 0 12 40 36 49 30 2 -2 -4 -12 -14 -23z
m-76 3 c0 -5 -30 -30 -65 -56 -53 -39 -62 -44 -48 -22 9 14 29 32 44 40 14 7
32 21 39 29 14 17 32 21 30 9z m-15 -58 c-3 -8 -14 -17 -25 -20 -11 -4 -16
-11 -13 -17 4 -7 2 -8 -4 -4 -6 4 -22 2 -34 -4 -17 -9 -15 -5 7 13 16 14 33
23 36 21 4 -2 9 3 13 11 3 8 10 15 15 15 6 0 8 -7 5 -15z m161 -10 c-11 -8
-25 -19 -32 -25 -7 -5 -17 -10 -24 -10 -6 0 -25 -10 -41 -22 -20 -14 -29 -17
-26 -7 2 8 33 28 69 46 71 35 84 39 54 18z m-441 -129 c-3 -9 -10 -16 -15 -16
-5 0 -4 9 3 20 14 22 21 20 12 -4z m99 -61 c-3 -9 -8 -14 -10 -11 -3 3 -2 9 2
15 9 16 15 13 8 -4z m-60 -90 c-3 -9 -8 -14 -10 -11 -3 3 -2 9 2 15 9 16 15
13 8 -4z m2752 -25 c10 -11 16 -20 13 -20 -3 0 -13 9 -23 20 -10 11 -16 20
-13 20 3 0 13 -9 23 -20z m-2789 -28 c-17 -16 -18 -16 -5 5 7 12 15 20 18 17
3 -2 -3 -12 -13 -22z m-35 -5 c-10 -9 -11 -8 -5 6 3 10 9 15 12 12 3 -3 0 -11
-7 -18z m2909 13 c0 -5 -2 -10 -4 -10 -3 0 -8 5 -11 10 -3 6 -1 10 4 10 6 0
11 -4 11 -10z m-2630 -74 c0 -2 -8 -10 -17 -17 -16 -13 -17 -12 -4 4 13 16 21
21 21 13z m2340 -53 c0 -9 8 -22 18 -30 9 -8 11 -11 3 -7 -11 5 -13 3 -8 -10
4 -10 7 -22 7 -27 0 -5 9 -18 20 -29 15 -15 18 -25 11 -37 -6 -12 -2 -28 17
-57 14 -23 25 -50 24 -60 0 -11 4 -28 9 -39 8 -14 8 -17 0 -13 -11 7 -13 -5
-13 -139 0 -38 -4 -75 -9 -80 -11 -15 6 -39 21 -30 8 5 11 3 8 -6 -3 -8 -12
-13 -21 -13 -10 1 -13 -4 -10 -13 3 -9 14 -13 25 -10 15 4 18 1 12 -15 -5 -17
-3 -18 15 -9 20 11 25 8 22 -12 -1 -5 9 -7 21 -5 17 2 22 -1 20 -14 -2 -11 3
-18 12 -18 8 0 18 -10 21 -22 4 -13 17 -33 28 -46 17 -18 21 -36 22 -83 0 -57
1 -60 23 -56 12 2 20 2 18 -1 -3 -2 0 -14 6 -26 7 -11 11 -25 10 -30 -2 -4 3
-15 9 -23 7 -8 8 -13 3 -12 -21 4 -35 -2 -29 -11 4 -6 10 -8 14 -6 10 6 13
-14 14 -81 0 -31 4 -50 10 -46 6 4 7 -5 3 -23 -5 -21 -4 -25 4 -14 9 13 14 7
11 -12 0 -5 2 -8 7 -8 7 0 12 -81 12 -215 1 -130 22 -440 32 -450 6 -6 8 6 7
33 -2 25 2 47 10 55 11 10 13 8 8 -10 -3 -13 -1 -26 4 -29 14 -9 11 -46 -3
-38 -10 6 -10 4 0 -7 6 -7 12 -27 12 -43 l0 -31 -21 30 -21 30 8 -130 c4 -71
9 -155 10 -185 2 -30 5 -74 8 -97 7 -47 -5 -64 -22 -30 -14 29 -21 78 -11 71
11 -6 12 10 2 20 -5 4 -8 13 -8 19 0 7 -10 12 -22 13 -15 1 -23 -6 -28 -23 -4
-16 -11 -23 -20 -19 -18 7 -8 -23 14 -42 14 -12 14 -13 -1 -8 -11 3 -28 -6
-46 -24 -27 -27 -42 -30 -42 -8 0 5 4 6 10 3 6 -3 7 1 4 10 -4 8 -1 21 5 29 6
7 8 16 4 19 -9 10 -33 -13 -33 -31 0 -8 -3 -12 -7 -9 -4 4 -19 -4 -34 -19 -17
-16 -29 -22 -33 -15 -4 6 -14 11 -21 11 -19 0 -55 31 -49 42 7 11 -19 10 -49
-1 -18 -7 -30 -5 -46 5 -11 8 -31 17 -43 19 -13 3 -31 15 -40 27 -10 13 -18
17 -18 10 0 -8 -11 -5 -32 11 -18 14 -39 22 -46 20 -7 -3 -24 4 -36 16 -12 12
-25 19 -28 16 -2 -3 -27 6 -54 20 -27 14 -55 25 -62 25 -7 0 -11 4 -8 9 3 4
-13 16 -35 26 -33 15 -44 16 -60 7 -22 -14 -32 -15 -25 -4 2 4 -9 15 -26 25
-29 17 -29 16 9 -27 58 -66 86 -129 78 -174 -4 -20 -12 -43 -18 -51 -10 -12
-9 -14 5 -8 9 3 22 0 28 -8 6 -8 25 -17 41 -20 16 -4 27 -11 23 -16 -5 -9 9
-13 34 -10 21 3 13 -49 -12 -74 l-24 -24 -16 24 c-9 13 -16 28 -16 34 0 5 -6
11 -13 14 -7 3 -13 -3 -13 -13 0 -10 5 -16 10 -13 5 3 6 1 2 -5 -3 -6 -14 -10
-24 -10 -9 0 -24 -2 -33 -6 -11 -5 -21 3 -34 28 -11 19 -16 38 -12 42 4 4 7
-1 7 -11 0 -33 19 -2 24 38 3 21 8 43 12 49 5 7 0 9 -14 6 -12 -4 -20 -2 -16
3 3 5 -11 9 -30 9 -19 0 -38 5 -41 10 -3 6 -11 10 -16 10 -6 0 -7 -5 -3 -12 5
-7 3 -8 -6 -3 -7 4 -26 8 -41 7 -26 -1 -28 2 -19 19 14 24 -5 26 -19 2 -8 -14
-10 -15 -11 -3 0 10 -11 15 -34 15 -26 0 -32 -4 -28 -15 5 -13 3 -13 -10 -2
-12 10 -17 10 -20 1 -3 -9 -12 -10 -36 -1 -25 9 -38 7 -69 -8 -23 -11 -44 -15
-53 -10 -9 5 -24 4 -34 -2 -14 -8 -17 -7 -12 1 4 6 4 11 -1 12 -4 0 -28 3 -53
5 -51 6 -53 6 -97 1 -18 -2 -33 0 -33 3 0 4 -6 7 -14 7 -8 0 -12 -6 -9 -14 3
-7 1 -13 -3 -14 -5 0 -18 -3 -29 -6 -11 -3 -36 -6 -55 -7 -19 0 -41 -8 -47
-16 -11 -13 -14 -13 -23 0 -7 12 -10 12 -10 1 0 -9 -9 -12 -30 -9 -16 3 -30 1
-30 -4 0 -4 -5 -8 -11 -8 -5 0 -7 5 -4 10 3 6 2 10 -4 10 -5 0 -13 -10 -17
-22 -5 -16 -1 -27 15 -39 11 -9 21 -22 21 -28 0 -11 35 -33 42 -26 2 2 4 -5 5
-16 1 -11 -1 -17 -5 -15 -4 3 -14 -9 -21 -25 -14 -33 -27 -37 -34 -11 -3 9 -5
2 -6 -15 0 -18 -6 -33 -11 -33 -6 0 -9 3 -9 8 4 22 -3 32 -21 32 -16 0 -20 -7
-21 -37 -1 -24 -3 -29 -6 -15 -2 12 -8 22 -13 22 -5 0 -10 10 -12 23 -4 19 -6
17 -15 -13 -6 -23 -7 -39 0 -47 6 -9 6 -13 -2 -13 -6 0 -14 7 -17 15 -4 8 -11
12 -16 9 -6 -4 -6 2 1 14 8 15 7 23 -4 32 -10 8 -13 21 -9 34 5 18 4 18 -13
-4 -10 -14 -18 -27 -18 -30 0 -3 -8 -16 -18 -30 -19 -27 -23 -20 -7 11 16 29
2 44 -21 23 -17 -15 -24 -13 -20 9 0 4 -4 7 -10 7 -7 0 -9 9 -6 21 4 16 3 18
-8 9 -9 -8 -15 -8 -20 0 -4 6 6 13 22 16 18 3 37 19 51 41 17 24 28 33 40 28
9 -3 13 -3 10 1 -4 3 2 16 13 27 11 12 17 28 13 39 -3 10 -1 18 5 18 6 0 26
14 45 30 22 19 36 26 38 18 2 -6 12 8 22 31 9 24 14 46 11 49 -3 3 -5 -1 -5
-8 0 -7 -9 -3 -21 11 l-21 24 7 -25 c7 -24 7 -24 -9 -5 -11 14 -15 16 -16 6 0
-8 -3 -12 -6 -8 -3 3 -26 -6 -51 -20 -25 -14 -42 -20 -39 -14 12 19 -10 12
-29 -9 -9 -10 -34 -25 -54 -31 -20 -7 -40 -18 -44 -25 -4 -8 -19 -14 -32 -14
-14 0 -25 -4 -25 -9 0 -12 -99 -63 -110 -56 -4 3 -15 -1 -23 -9 -8 -8 -17 -13
-19 -10 -3 2 -13 -5 -23 -16 -10 -11 -29 -20 -42 -20 -12 0 -23 -5 -23 -11 0
-6 -7 -9 -15 -5 -10 3 -15 -1 -15 -11 0 -13 -3 -14 -12 -5 -9 9 -14 7 -24 -6
-16 -20 -18 -36 -4 -27 6 4 7 -1 3 -11 -4 -12 -8 -14 -11 -6 -3 10 -7 10 -20
0 -13 -11 -15 -10 -9 5 5 15 4 16 -13 7 -27 -14 -33 -13 -26 8 4 10 -2 8 -14
-8 -11 -14 -32 -38 -46 -55 l-25 -30 6 28 c4 16 3 27 -3 27 -6 0 -8 8 -5 19 6
23 -25 38 -33 16 -10 -24 -21 -17 -28 16 -5 24 -9 29 -19 21 -10 -8 -12 -2 -9
29 3 31 1 39 -12 39 -9 0 -21 -9 -28 -19 -9 -15 -16 -17 -31 -10 -17 10 -17
12 -3 34 15 23 13 55 -4 55 -15 0 -21 -18 -8 -23 10 -3 9 -12 -5 -36 -10 -17
-15 -36 -12 -42 4 -5 0 -18 -8 -27 -8 -9 -14 -28 -12 -42 1 -14 -4 -35 -12
-45 -15 -19 -15 -19 -8 3 5 16 2 22 -9 22 -10 0 -13 6 -10 15 9 21 -2 19 -26
-7 -11 -12 -20 -16 -20 -9 0 7 -4 9 -10 6 -5 -3 -10 -1 -10 4 0 6 7 11 15 11
15 0 16 3 19 56 1 29 -1 31 -18 19 -27 -20 -47 -9 -36 20 6 15 6 27 0 30 -13
8 -13 92 0 100 7 5 8 11 1 19 -5 6 -7 33 -4 60 3 30 1 46 -5 42 -5 -3 -15 1
-22 9 -10 11 -10 18 -1 29 9 11 9 15 -1 18 -10 4 -10 8 1 21 7 10 9 17 4 17
-5 0 -8 15 -6 33 1 17 4 55 5 82 1 28 6 56 11 63 6 7 6 12 0 12 -10 0 -11 27
-3 45 3 6 5 45 5 87 0 43 3 78 6 78 7 0 4 30 -6 54 -5 10 -3 21 3 25 6 3 14
22 17 40 5 29 4 32 -9 22 -12 -10 -14 -8 -9 11 3 13 10 28 14 34 13 16 -1 56
-17 50 -16 -6 -18 6 -4 20 5 5 10 24 12 42 1 19 5 35 9 38 4 2 10 22 14 44 4
22 11 42 16 46 5 3 9 10 9 16 0 7 -4 7 -13 0 -27 -22 -37 2 -15 36 16 25 23
30 29 20 5 -7 9 -10 10 -5 1 4 3 12 4 17 1 6 3 17 4 27 0 9 19 33 42 55 22 21
37 43 34 49 -4 5 -1 17 7 26 11 14 11 16 -2 8 -8 -4 0 8 19 28 19 21 38 32 41
27 3 -6 16 12 28 40 25 57 35 65 21 18 -6 -23 -5 -34 4 -40 21 -13 28 -9 22
15 -5 17 1 30 20 48 15 13 36 32 46 42 25 22 24 10 -1 -28 -23 -35 -27 -60 -5
-28 9 12 22 20 29 17 17 -6 49 24 43 41 -3 6 3 17 14 23 17 11 18 10 9 -14 -9
-23 -6 -22 24 10 36 39 63 48 51 19 -4 -10 -9 -33 -10 -51 -3 -28 -1 -31 11
-21 15 13 44 6 44 -11 0 -6 -4 -9 -9 -6 -5 4 -7 -2 -4 -12 4 -18 -13 -40 -32
-40 -5 0 -11 -6 -14 -13 -2 -8 2 -10 13 -6 10 4 27 2 38 -4 15 -8 19 -8 14 0
-4 6 -3 11 3 11 5 0 11 -6 13 -12 3 -7 17 7 32 30 15 24 30 41 33 38 4 -3 -1
-14 -10 -24 -10 -10 -17 -23 -17 -28 0 -5 14 8 31 29 17 20 35 35 40 31 5 -3
7 -10 4 -15 -4 -5 0 -9 9 -9 12 0 12 5 3 29 -7 20 -16 27 -26 24 -12 -5 -12
-1 3 13 13 14 20 15 23 7 3 -7 8 -13 12 -13 4 0 8 6 9 13 8 57 18 81 32 72 11
-7 40 5 40 17 0 6 -7 8 -14 5 -10 -4 -13 -1 -9 9 3 8 10 13 16 11 14 -4 47 24
47 40 0 8 12 31 26 53 15 22 24 44 20 47 -4 4 -11 1 -16 -7 -11 -17 -13 -9 -4
14 3 9 17 16 31 16 15 0 22 4 17 11 -8 13 64 119 82 119 7 0 15 4 18 9 4 5 -4
7 -16 4 -21 -4 -21 -3 -5 7 10 7 27 10 37 7 11 -3 18 0 17 7 -1 6 14 12 35 14
20 2 42 10 48 18 7 8 19 14 26 14 8 0 14 3 14 8 0 4 14 15 30 24 29 17 31 16
52 -5 17 -18 20 -19 15 -4 -7 19 -3 21 48 31 19 4 25 3 16 -2 -17 -12 0 -23
18 -12 8 4 12 14 9 22 -4 9 1 14 13 14 11 0 19 -3 19 -6 0 -3 16 -4 35 -2 19
2 49 -1 66 -7 26 -9 30 -8 26 4 -4 9 0 13 12 12 12 -1 17 -6 13 -17 -4 -11 0
-10 16 4 12 11 22 15 22 10 0 -5 4 -4 8 1 11 15 65 39 82 36 8 -2 12 1 7 5 -4
4 10 13 30 20 32 11 39 11 46 -1 6 -11 13 -13 26 -5 10 5 21 7 24 3 4 -3 33 2
64 13 59 18 89 19 110 3 7 -7 12 -6 15 2 2 7 13 13 24 13 11 1 24 5 29 8 22
13 85 26 85 17 0 -5 5 -9 11 -9 5 0 7 5 3 11 -4 8 0 8 15 0 17 -10 20 -9 15 4
-7 17 17 19 51 5 13 -5 26 -2 38 8 16 14 19 14 27 2 8 -12 10 -12 10 -1 0 7 6
11 15 7 9 -3 15 0 15 10 0 12 5 14 18 9 9 -5 26 -7 37 -7 11 1 39 2 63 3 29 0
42 5 42 15 0 17 5 17 31 4 13 -8 19 -7 19 0 0 6 4 9 8 6 4 -2 14 -1 22 4 17
11 30 4 30 -17z m-1493 -249 c-3 -3 -12 -4 -19 -1 -8 3 -5 6 6 6 11 1 17 -2
13 -5z m-700 -169 c0 -8 -3 -13 -5 -10 -3 3 -11 -3 -19 -13 -12 -16 -13 -15
-6 3 5 15 20 33 29 35 0 0 1 -7 1 -15z m-13 -68 c-3 -12 -7 -22 -8 -22 0 0
-12 -6 -26 -14 l-24 -14 17 27 c10 15 16 30 13 34 -2 4 4 9 15 9 16 2 19 -2
13 -20z m16 -48 c0 -6 5 -7 10 -4 6 3 10 -4 10 -17 0 -18 -2 -20 -10 -8 -7 12
-10 11 -15 -5 -13 -39 -13 -43 -2 -54 8 -8 8 -11 -1 -11 -7 0 -12 -6 -12 -13
0 -7 -7 -22 -16 -33 -15 -19 -15 -19 -11 3 4 16 1 20 -10 16 -12 -5 -12 0 1
32 9 21 14 40 11 43 -3 3 -5 1 -5 -4 0 -6 -7 -19 -15 -30 -14 -18 -14 -18 -15
6 0 36 33 85 58 87 12 1 22 -3 22 -8z m-80 -133 c0 -3 -4 -8 -10 -11 -5 -3
-10 -1 -10 4 0 6 5 11 10 11 6 0 10 -2 10 -4z m10 -28 c0 -19 -18 -44 -25 -36
-4 3 0 15 7 27 15 24 18 26 18 9z m250 -92 c0 -3 -4 -8 -10 -11 -5 -3 -10 -1
-10 4 0 6 5 11 10 11 6 0 10 -2 10 -4z m-579 -409 c-10 -9 -11 -8 -5 6 3 10 9
15 12 12 3 -3 0 -11 -7 -18z m-95 -664 c1 -23 7 -60 14 -83 1 -3 1 -34 0 -70
-2 -36 -4 -107 -5 -158 -1 -51 -5 -95 -8 -98 -3 -4 -12 15 -18 42 -7 29 -24
60 -42 77 -29 29 -30 30 -17 80 6 29 13 80 13 115 2 49 6 63 20 68 9 3 17 13
17 23 0 18 8 31 19 31 3 0 6 -12 7 -27z m1524 -388 c0 -7 -30 -13 -34 -7 -3 4
4 9 15 9 10 1 19 0 19 -2z m1590 -100 c0 -14 5 -25 10 -25 6 0 10 -7 10 -16 0
-13 -3 -14 -14 -5 -15 13 -27 71 -14 71 4 0 8 -11 8 -25z m-656 -68 c-5 -13
-9 -14 -24 -5 -14 9 -16 15 -7 30 10 14 14 15 25 5 7 -8 10 -21 6 -30z m-2344
23 c0 -5 -4 -10 -10 -10 -5 0 -10 5 -10 10 0 6 5 10 10 10 6 0 10 -4 10 -10z
m942 -82 c-7 -7 -12 -8 -12 -2 0 14 12 26 19 19 2 -3 -1 -11 -7 -17z m78 -2
c0 -3 -4 -8 -10 -11 -5 -3 -10 -1 -10 4 0 6 5 11 10 11 6 0 10 -2 10 -4z
m-660 -66 c0 -23 -25 -27 -33 -6 -5 13 5 23 26 25 4 1 7 -8 7 -19z m32 -42
c-10 -22 -10 -21 -9 9 1 19 6 28 11 23 6 -6 5 -18 -2 -32z m1504 -33 c-8 -8
-18 -15 -22 -15 -3 0 -1 7 6 15 7 8 17 15 22 15 5 0 3 -7 -6 -15z m-170 -21
c-1 -8 -8 -19 -15 -23 -16 -11 -62 -1 -55 11 3 5 13 7 21 4 8 -3 21 1 29 9 19
19 23 19 20 -1z m310 -99 c7 -37 0 -91 -15 -114 -13 -20 -48 -4 -63 29 -15 36
-20 37 -33 8 -6 -13 -23 -27 -39 -33 -24 -8 -31 -6 -46 13 -21 25 -30 28 -30
9 0 -45 -107 -84 -152 -55 -19 12 -27 12 -48 1 -23 -12 -140 -15 -137 -3 1 3
-6 17 -14 33 l-15 27 -29 -30 c-22 -23 -25 -30 -12 -30 9 0 17 -4 17 -10 0 -5
-8 -10 -17 -10 -10 0 -24 -4 -32 -9 -9 -6 23 -8 83 -5 71 4 102 2 114 -8 9 -7
13 -8 10 -3 -4 6 37 11 115 12 82 1 116 -2 106 -9 -10 -7 -5 -7 16 -2 17 3 48
8 70 9 22 1 56 6 75 10 30 7 32 9 15 16 -19 7 -19 8 3 8 13 1 22 -5 22 -14 0
-11 6 -12 23 -6 12 4 27 6 34 4 7 -3 10 3 6 15 -3 12 1 19 10 19 8 0 13 -6 10
-12 -2 -7 5 -15 16 -18 12 -3 21 -1 21 5 0 6 7 8 15 4 8 -3 15 0 15 6 0 9 3 9
11 1 6 -6 18 -9 25 -6 8 3 14 -1 14 -8 0 -11 3 -11 10 1 5 8 10 12 10 7 0 -4
11 0 25 9 14 9 25 14 25 11 0 -4 12 6 27 21 l27 27 10 -27 c5 -16 14 -28 19
-28 5 0 6 8 3 17 -4 10 -4 14 0 11 3 -4 13 0 21 8 19 19 30 10 13 -11 -10 -13
-9 -15 9 -15 11 0 21 -4 21 -10 0 -5 -7 -10 -15 -10 -8 0 -15 -5 -15 -11 0 -6
9 -9 20 -6 11 3 20 1 20 -4 0 -9 -14 -13 -37 -10 -7 1 -13 -5 -13 -12 0 -8
-13 -17 -29 -20 -16 -3 -31 -13 -35 -23 -4 -12 -2 -15 9 -11 18 8 26 -5 32
-50 3 -22 1 -33 -5 -29 -6 3 -12 2 -14 -4 -2 -6 -19 -11 -38 -12 -31 -1 -35
-4 -36 -30 -1 -15 3 -28 7 -28 5 0 9 6 9 13 1 6 10 1 22 -13 15 -18 22 -21 26
-11 4 11 6 11 13 0 4 -7 20 -14 36 -15 15 -1 29 -3 31 -3 1 -1 -3 -7 -10 -15
-7 -8 -16 -12 -20 -10 -3 2 -5 -7 -3 -21 1 -14 -1 -25 -6 -25 -5 0 -5 -8 -2
-17 6 -16 5 -16 -10 -4 -15 12 -21 9 -19 -10 1 -3 -9 -5 -21 -5 -18 1 -23 -5
-25 -33 -3 -25 0 -31 10 -25 7 4 5 -2 -4 -13 -10 -11 -18 -27 -18 -36 0 -9 -5
-19 -11 -22 -6 -5 -4 -12 8 -22 17 -14 17 -14 0 -9 -13 4 -20 0 -24 -14 -3
-11 -11 -20 -19 -20 -8 0 -11 -6 -8 -15 4 -9 -8 -31 -28 -53 -30 -34 -37 -37
-46 -23 -9 14 -11 12 -11 -8 -1 -23 -2 -23 -20 -7 -18 16 -18 16 -14 -9 3 -15
1 -25 -6 -25 -6 0 -11 6 -12 13 0 9 -2 9 -5 0 -3 -7 -11 -10 -19 -7 -7 3 -16
-3 -20 -15 -9 -28 -23 -18 -20 14 2 14 -1 27 -6 31 -5 3 -9 -2 -9 -10 0 -9 -6
-13 -14 -10 -10 4 -12 -2 -8 -23 4 -24 3 -26 -10 -16 -12 11 -17 9 -26 -12 -9
-19 -9 -25 0 -25 20 0 2 -11 -27 -16 -22 -4 -26 -2 -21 12 5 12 2 15 -10 10
-12 -4 -14 -1 -9 13 3 11 1 22 -4 26 -6 3 -8 0 -5 -8 3 -8 -2 -20 -11 -27 -10
-8 -15 -9 -15 -1 0 6 -5 11 -11 11 -5 0 -7 -6 -3 -12 5 -9 2 -9 -9 1 -15 12
-17 11 -17 -3 0 -24 -29 -51 -41 -39 -5 5 -7 18 -3 27 5 14 9 15 15 4 5 -7 9
-8 9 -2 0 5 -7 19 -15 30 -9 10 -14 13 -13 5 5 -23 -20 -24 -27 -1 -4 12 -9
19 -12 17 -3 -3 0 -14 5 -23 12 -22 -13 -79 -29 -68 -8 4 -7 9 2 15 10 6 8 9
-8 9 -13 0 -23 6 -24 13 0 7 -3 6 -6 -3 -15 -36 -53 -54 -53 -24 0 9 5 12 12
8 6 -4 8 -3 4 4 -3 5 0 12 6 15 8 2 9 8 4 13 -5 5 -11 4 -13 -3 -7 -19 -23
-16 -23 3 0 12 -6 10 -21 -10 -27 -34 -53 -35 -47 -1 3 14 1 25 -3 25 -5 0 -9
-4 -9 -10 0 -5 -7 -10 -16 -10 -8 0 -12 5 -9 10 3 6 1 10 -5 10 -7 0 -9 -7 -6
-16 5 -12 2 -15 -10 -10 -11 4 -15 2 -11 -8 3 -8 -1 -20 -9 -26 -10 -9 -14 -9
-14 -1 0 6 -7 11 -16 11 -10 0 -14 5 -10 16 3 8 2 13 -3 10 -5 -3 -11 4 -14
16 -5 19 -8 20 -23 7 -16 -13 -16 -12 -4 11 16 29 21 62 8 54 -5 -4 -7 -12 -4
-20 3 -9 -4 -16 -19 -20 -14 -3 -22 -10 -19 -15 3 -5 0 -9 -5 -9 -16 0 -13 30
3 36 16 6 29 44 15 44 -5 0 -13 -8 -16 -17 -10 -25 -35 -53 -44 -47 -5 3 -4
17 1 32 9 24 9 25 -4 9 -9 -12 -15 -14 -18 -6 -3 9 -12 7 -31 -6 -26 -17 -27
-17 -20 0 5 14 3 16 -7 10 -10 -6 -12 -3 -8 13 4 12 2 25 -3 28 -5 3 -10 0
-10 -5 -1 -6 -2 -17 -3 -23 -1 -7 -7 -12 -14 -11 -7 2 -12 -2 -12 -7 0 -6 -10
-2 -22 9 -11 11 -26 18 -32 15 -6 -3 -3 1 7 9 24 20 21 25 -8 19 -14 -2 -25
-8 -25 -12 0 -4 -6 -10 -13 -13 -10 -4 -13 2 -9 21 4 20 2 24 -12 19 -12 -5
-16 -1 -16 14 0 15 5 19 15 15 26 -10 16 8 -19 34 -25 18 -31 28 -24 37 6 7
14 11 18 8 9 -6 23 25 15 33 -3 3 -14 -3 -25 -13 -11 -10 -23 -15 -27 -12 -3
4 -13 1 -22 -6 -14 -10 -14 -10 -3 5 8 9 11 22 7 28 -3 5 3 24 15 40 12 17 18
30 13 30 -13 -1 -43 -26 -43 -38 0 -11 -30 -25 -38 -17 -3 3 2 13 10 22 19 23
20 56 1 48 -11 -3 -13 1 -8 16 5 15 4 19 -5 14 -9 -6 -9 -3 -1 14 10 18 9 21
-8 21 -11 0 -21 -6 -24 -12 -2 -7 -8 -10 -12 -5 -5 4 0 14 11 22 11 8 14 15 7
15 -18 0 -16 20 4 42 18 20 4 25 -15 6 -16 -16 -16 4 1 22 10 12 9 12 -5 1
-15 -11 -19 -11 -24 3 -3 9 -1 23 6 31 10 12 10 15 -3 15 -8 0 -18 6 -20 13
-4 9 -8 8 -16 -3 -7 -9 -11 -10 -11 -3 0 16 40 43 62 43 16 0 16 2 -3 21 -17
17 -19 23 -8 30 7 4 10 11 6 15 -4 4 -13 2 -19 -4 -17 -17 -28 -15 -22 3 12
30 -6 14 -19 -17 l-13 -32 -1 37 c-1 20 3 37 7 37 5 0 10 10 12 23 2 12 9 21
16 19 8 -1 11 2 8 7 -4 5 2 14 11 20 10 6 12 11 6 11 -7 0 -13 5 -13 11 0 5 5
7 10 4 6 -3 10 -1 10 5 0 8 6 8 20 0 16 -9 18 -8 14 5 -4 8 -1 15 5 15 6 0 11
-5 11 -11 0 -5 5 -7 11 -3 8 4 9 0 4 -15 -4 -15 -3 -21 7 -19 7 2 16 7 19 11
3 5 13 2 21 -7 9 -8 27 -18 42 -22 14 -3 29 -10 32 -15 3 -5 15 -9 27 -8 12 0
16 3 10 6 -7 2 -13 8 -13 12 0 10 49 5 83 -8 36 -14 139 -15 117 -1 -12 8 -9
9 12 8 20 -2 24 -6 17 -14 -14 -17 8 -29 26 -14 8 7 15 9 15 6 0 -4 5 -4 12 0
8 5 6 9 -6 14 -17 6 -17 7 -1 23 9 10 22 14 28 11 7 -4 -1 7 -17 24 -32 35
-46 40 -46 18 0 -22 -29 -46 -55 -46 -33 0 -57 47 -54 108 2 43 5 48 26 48 13
0 23 -4 23 -9 0 -5 7 -6 16 -3 10 4 24 -2 35 -15 14 -17 19 -18 19 -7 0 30 57
37 104 13 16 -9 33 -12 37 -8 5 5 50 5 101 1 54 -4 109 -2 132 3 21 6 59 9 85
8 26 -1 51 0 57 3 5 3 26 10 47 16 30 8 40 7 52 -5 13 -13 15 -13 15 2 0 9 4
14 8 11 4 -2 14 -1 22 5 8 5 25 9 37 9 17 0 24 -7 29 -35z m70 20 c-3 -8 -2
-15 3 -15 12 0 1 -51 -17 -77 -24 -38 -41 -29 -38 21 1 33 8 50 27 65 29 25
33 25 25 6z m-1011 -15 c-3 -5 0 -7 8 -4 8 3 27 -7 43 -21 16 -15 23 -24 16
-20 -8 4 -13 2 -11 -6 4 -31 -2 -49 -20 -58 -28 -15 -51 7 -57 57 -5 44 0 62
17 62 6 0 7 -4 4 -10z m-524 -64 c17 10 9 -13 -10 -30 -19 -17 -20 -17 -23 6
l-5 23 -10 -24 c-10 -25 -9 -25 -25 17 -4 9 56 20 60 10 2 -5 8 -6 13 -2z m19
-31 c-6 -8 -8 -20 -4 -27 12 -19 13 -37 3 -44 -5 -3 -9 1 -9 8 0 10 -3 9 -9
-2 -13 -19 -3 -34 14 -20 18 15 45 2 38 -17 -5 -12 -3 -14 8 -8 8 5 5 -2 -6
-14 -17 -20 -21 -21 -23 -7 -3 12 -10 15 -23 11 -14 -5 -17 -2 -13 8 3 10 -2
18 -15 22 -12 3 -21 10 -21 15 0 5 8 6 18 3 14 -6 15 -4 5 8 -10 12 -9 20 4
40 16 22 33 38 42 39 2 0 -2 -7 -9 -15z m1450 -55 c0 -5 -2 -10 -4 -10 -3 0
-8 5 -11 10 -3 6 -1 10 4 10 6 0 11 -4 11 -10z m-150 -10 c0 -5 -4 -10 -9 -10
-6 0 -13 5 -16 10 -3 6 1 10 9 10 9 0 16 -4 16 -10z m-695 -10 c8 -13 -5 -13
-25 0 -13 8 -13 10 2 10 9 0 20 -4 23 -10z m-550 -67 c-4 -10 -8 -27 -10 -37
-2 -19 -35 -33 -35 -14 0 14 21 52 34 60 17 12 19 10 11 -9z m1755 13 c0 -3
-4 -8 -10 -11 -5 -3 -10 -1 -10 4 0 6 5 11 10 11 6 0 10 -2 10 -4z m-1735 -55
c3 -5 1 -12 -5 -16 -5 -3 -10 1 -10 9 0 18 6 21 15 7z m8 -82 c-5 -5 -9 3 -11
19 -1 24 0 25 9 9 7 -11 7 -23 2 -28z m-527 -47 c-3 -2 7 -16 22 -31 16 -14
34 -39 42 -55 17 -34 59 -82 70 -79 3 1 6 -12 5 -28 -2 -25 2 -30 16 -26 17 4
32 -23 34 -61 0 -7 6 -17 14 -21 7 -5 10 -14 7 -20 -4 -6 -12 -9 -17 -6 -5 4
-9 1 -9 -5 0 -7 6 -10 13 -7 8 3 20 1 28 -4 11 -7 10 -9 -6 -9 -15 0 -16 -3
-7 -12 17 -17 15 -29 -3 -22 -8 4 -15 2 -15 -4 0 -5 7 -12 15 -16 8 -3 15 -2
15 2 0 4 9 13 19 19 17 10 18 9 13 -10 -10 -42 -23 -50 -44 -27 -11 11 -24 17
-30 14 -7 -5 -9 -1 -5 9 4 11 2 14 -7 11 -7 -3 -16 2 -19 10 -4 9 -2 16 3 16
6 0 10 5 10 11 0 6 -7 9 -15 5 -14 -5 -58 31 -45 37 3 1 -5 17 -18 34 -13 18
-21 37 -17 43 3 5 -3 15 -14 21 -10 7 -17 18 -14 25 2 6 0 15 -6 19 -6 3 -11
17 -11 30 0 13 -5 27 -11 30 -6 4 -8 13 -5 20 3 8 -2 19 -10 26 -8 6 -13 17
-13 23 1 6 -3 23 -9 38 -6 15 -9 35 -5 43 4 12 9 10 19 -11 8 -15 12 -29 10
-32z m694 -12 c8 -16 8 -20 -4 -20 -10 0 -13 6 -9 17 5 13 2 15 -11 10 -10 -4
-15 -3 -11 3 10 16 23 12 35 -10z m1570 -83 c-1 -21 -1 -21 -15 -3 -8 10 -12
23 -9 28 9 14 24 -2 24 -25z m-60 -137 c0 -5 -4 -10 -10 -10 -5 0 -10 5 -10
10 0 6 5 10 10 10 6 0 10 -4 10 -10z m-2756 -93 c-5 -14 -44 -41 -44 -30 0 10
32 43 41 43 5 0 6 -6 3 -13z m2891 -176 c-1 -18 -17 -46 -38 -71 -40 -43 -48
-66 -19 -56 13 5 12 2 -4 -11 -12 -10 -30 -24 -40 -31 -17 -11 -17 -12 6 -7
l25 6 -22 -20 c-13 -10 -23 -24 -23 -29 0 -6 -8 -13 -18 -16 -10 -4 -32 -21
-48 -38 -16 -18 -19 -24 -6 -14 12 11 22 14 22 8 0 -6 -28 -36 -62 -67 -35
-32 -57 -54 -50 -51 21 12 13 -8 -9 -22 -20 -13 -20 -14 -2 -27 17 -14 17 -14
0 -15 -10 0 -15 -4 -12 -10 3 -5 1 -10 -5 -10 -7 0 -10 -7 -6 -15 7 -20 -4
-19 -20 3 -11 14 -15 15 -26 3 -11 -12 -10 -13 5 -8 31 11 18 -2 -23 -23 -37
-19 -40 -19 -50 -2 -9 13 -12 14 -17 3 -4 -11 -7 -11 -14 0 -6 11 -12 9 -28
-5 -12 -11 -21 -14 -21 -8 0 7 -5 12 -11 12 -5 0 -8 -4 -5 -9 3 -5 -1 -12 -10
-15 -26 -10 -34 -7 -34 12 0 9 -4 13 -8 7 -4 -5 -17 -11 -29 -12 -18 -2 -21 2
-17 24 7 37 45 69 77 64 4 0 7 3 7 9 0 6 -5 10 -11 10 -7 0 5 11 25 25 75 51
101 70 104 78 2 4 12 7 23 7 21 0 26 16 7 23 -7 2 -1 4 14 3 19 -1 24 -4 17
-13 -6 -7 -6 -13 0 -17 14 -9 33 54 20 70 -8 9 -6 11 10 7 13 -3 24 2 33 16 7
12 17 21 22 21 5 0 7 -3 3 -6 -3 -4 1 -13 9 -21 12 -12 12 -18 2 -31 -11 -13
-11 -14 1 -7 11 6 13 4 8 -8 -8 -22 16 -22 34 0 12 15 12 16 -5 10 -14 -5 -17
-3 -13 8 4 8 2 17 -4 21 -6 4 -5 12 3 22 10 12 10 14 1 8 -22 -12 -14 8 10 29
12 10 23 18 25 17 8 -7 22 0 17 8 -3 6 3 10 15 10 11 0 23 7 26 15 4 9 16 21
28 27 20 11 20 10 4 -9 -10 -11 -18 -22 -18 -24 0 -9 40 -8 45 2 3 5 -1 6 -9
3 -14 -5 -14 -3 -1 22 8 16 15 35 15 42 0 7 3 11 8 9 4 -3 13 1 20 9 10 11 10
14 0 14 -9 0 -9 3 2 9 8 6 18 7 24 4 5 -3 6 -1 2 5 -4 6 -14 9 -24 6 -9 -3 -5
3 11 13 15 10 25 24 22 31 -3 7 -1 11 4 8 5 -3 8 -19 6 -35z m-902 -46 c-3 -9
-8 -14 -10 -11 -3 3 -2 9 2 15 9 16 15 13 8 -4z m817 -34 c0 -5 -9 -11 -21
-14 -16 -4 -18 -3 -8 9 13 16 29 19 29 5z m-2920 -173 c0 -6 23 -58 50 -114
28 -56 50 -107 50 -113 0 -6 4 -11 9 -11 5 0 14 -12 20 -27 6 -16 33 -68 61
-118 27 -49 61 -112 75 -140 15 -27 35 -63 45 -80 11 -16 24 -39 30 -50 6 -11
21 -38 35 -60 13 -22 29 -49 35 -60 6 -11 20 -37 33 -57 12 -21 35 -61 51 -90
15 -29 34 -60 42 -69 8 -8 14 -20 14 -25 0 -5 15 -32 33 -59 17 -28 38 -61 45
-75 7 -14 21 -38 32 -55 11 -16 27 -43 35 -60 9 -16 27 -48 40 -70 13 -22 30
-51 37 -65 7 -14 16 -27 20 -30 4 -3 12 -17 18 -30 6 -14 24 -45 40 -70 16
-25 34 -54 40 -65 6 -11 21 -38 35 -60 13 -22 31 -53 40 -70 8 -16 27 -48 40
-70 14 -22 30 -51 37 -65 7 -14 17 -29 21 -35 13 -15 47 -74 80 -135 16 -30
36 -62 43 -71 8 -8 14 -22 14 -31 0 -8 9 -23 20 -33 11 -10 20 -24 20 -32 0
-7 15 -35 33 -61 18 -26 38 -58 45 -72 7 -14 23 -43 37 -65 13 -22 31 -53 39
-70 9 -16 27 -48 40 -70 14 -22 32 -53 41 -70 26 -49 41 -74 56 -92 9 -10 21
-29 27 -43 7 -14 23 -43 37 -65 13 -22 28 -50 34 -62 5 -11 15 -24 21 -28 5
-3 17 -21 25 -38 8 -18 26 -50 40 -72 13 -22 32 -53 40 -70 9 -16 24 -43 32
-60 9 -16 22 -36 30 -43 7 -7 13 -20 13 -27 0 -7 6 -20 14 -27 12 -13 64 -101
102 -173 8 -16 26 -48 40 -70 13 -22 31 -53 40 -70 8 -16 26 -48 39 -70 14
-22 30 -51 37 -65 7 -14 27 -47 46 -73 18 -26 37 -58 43 -70 6 -12 21 -40 34
-62 14 -22 32 -53 40 -70 9 -16 36 -61 60 -100 24 -38 51 -83 60 -100 8 -16
26 -48 40 -70 13 -22 30 -52 37 -67 7 -16 16 -28 20 -28 4 0 15 -15 23 -32 16
-34 44 -84 58 -103 24 -33 67 -101 67 -107 0 -4 15 -29 32 -55 38 -56 62 -97
80 -135 7 -16 16 -28 20 -28 4 0 15 -15 23 -32 27 -56 48 -92 62 -106 7 -7 13
-17 13 -22 0 -9 40 -73 60 -97 6 -7 15 -23 21 -35 5 -13 21 -41 34 -63 14 -22
30 -51 37 -65 7 -14 15 -27 18 -30 4 -3 21 -32 40 -65 19 -33 36 -62 40 -65 3
-3 11 -16 18 -30 21 -41 51 -93 72 -125 11 -16 27 -43 36 -60 8 -16 26 -48 39
-70 14 -22 29 -49 35 -60 6 -11 22 -38 35 -60 14 -22 30 -51 37 -65 7 -14 15
-27 19 -30 6 -5 20 -29 54 -95 9 -16 24 -43 35 -60 11 -16 26 -41 33 -55 7
-14 24 -43 38 -65 25 -39 41 -67 74 -130 9 -16 25 -43 35 -60 11 -16 27 -43
35 -60 9 -16 26 -47 38 -67 12 -21 34 -59 49 -85 14 -27 38 -68 52 -93 14 -25
30 -54 36 -65 6 -11 21 -38 34 -60 13 -22 38 -67 56 -100 17 -33 40 -73 51
-90 10 -16 21 -37 25 -45 3 -8 9 -22 14 -30 5 -8 30 -55 55 -105 26 -49 50
-97 54 -105 4 -8 13 -25 20 -38 15 -29 9 -39 -29 -47 -28 -6 -43 -25 -19 -25
5 0 7 -5 4 -10 -4 -6 -11 -8 -16 -5 -10 7 -69 -25 -69 -36 0 -4 -10 -5 -22 -2
-19 4 -20 3 -8 -6 13 -9 13 -11 -1 -11 -28 0 -29 12 -3 32 22 18 23 23 12 37
-8 9 -24 36 -36 61 -13 25 -38 72 -58 105 -19 33 -48 87 -65 120 -17 33 -46
87 -65 120 -19 33 -41 74 -49 90 -9 17 -32 57 -51 90 -19 33 -42 74 -50 90 -8
17 -30 57 -50 90 -19 33 -41 74 -50 90 -8 17 -26 48 -39 70 -13 22 -29 49 -35
60 -6 11 -21 38 -35 60 -13 22 -29 51 -35 64 -6 13 -24 44 -40 68 -17 24 -30
47 -30 51 -1 4 -23 43 -50 87 -28 44 -54 91 -60 104 -6 12 -25 46 -43 75 -18
28 -38 60 -44 71 -7 11 -36 60 -65 108 -29 48 -62 103 -73 121 -58 97 -102
170 -114 194 -8 15 -20 31 -28 35 -7 4 -13 14 -13 22 0 12 -33 69 -58 100 -4
6 -23 37 -42 70 -18 33 -37 62 -40 65 -4 3 -13 17 -21 31 -21 39 -57 100 -79
134 -11 17 -26 41 -33 55 -6 14 -28 50 -48 80 -19 30 -38 62 -42 70 -4 8 -21
35 -37 60 -16 25 -34 54 -39 65 -5 12 -16 27 -25 34 -9 7 -16 20 -16 28 0 8
-9 26 -20 40 -11 14 -20 32 -20 39 0 8 -4 14 -9 14 -5 0 -16 16 -25 35 -9 19
-21 37 -26 40 -6 4 -17 21 -25 38 -25 53 -79 144 -97 164 -10 11 -18 25 -18
32 0 7 -9 24 -20 38 -11 14 -20 31 -20 38 0 6 -9 20 -20 30 -11 10 -20 24 -20
31 0 7 -6 19 -13 26 -13 12 -22 28 -62 103 -9 17 -26 47 -38 67 -12 20 -57 98
-101 172 -43 75 -82 139 -87 142 -5 3 -9 12 -9 21 0 9 -7 24 -15 33 -15 17
-76 124 -100 176 -8 17 -21 36 -29 44 -9 7 -16 20 -16 30 0 10 -7 23 -16 30
-8 8 -22 27 -30 44 -26 54 -47 90 -61 104 -7 7 -13 19 -13 26 0 7 -9 23 -20
36 -11 13 -20 28 -20 33 0 6 -7 18 -16 28 -9 10 -23 31 -32 48 -10 16 -35 60
-57 96 -73 123 -84 140 -100 170 -8 17 -27 48 -40 70 -14 22 -30 52 -36 68 -6
15 -15 27 -19 27 -5 0 -14 16 -20 35 -6 19 -15 35 -20 35 -4 0 -13 12 -19 28
-7 15 -23 45 -36 67 -13 22 -32 54 -42 72 -10 18 -45 78 -78 133 -83 141 -95
162 -134 233 -18 34 -48 85 -65 112 -17 28 -37 59 -44 70 -7 11 -17 32 -23 48
-6 15 -15 27 -19 27 -5 0 -12 10 -16 23 -3 12 -12 29 -20 37 -7 9 -27 43 -45
75 -17 33 -34 62 -38 65 -4 3 -12 16 -19 30 -21 41 -51 93 -72 125 -11 17 -27
44 -35 60 -9 17 -24 44 -35 60 -11 17 -26 44 -34 60 -8 17 -31 57 -50 90 -20
33 -43 74 -51 90 -9 17 -24 44 -35 60 -11 17 -24 39 -30 50 -6 11 -33 61 -60
110 -28 50 -63 115 -79 145 -16 30 -43 80 -59 110 -17 30 -42 80 -57 110 -15
30 -35 72 -46 93 -10 20 -16 43 -13 50 6 15 121 76 147 76 9 1 17 -4 17 -11z
m-585 -128 c-3 -5 2 -10 12 -10 10 -1 0 -7 -22 -15 -50 -18 -50 -18 -35 0 7 8
16 12 21 9 5 -3 9 2 9 10 0 9 5 16 11 16 5 0 7 -4 4 -10z m1855 -20 c6 -11 8
-20 6 -20 -3 0 -10 9 -16 20 -6 11 -8 20 -6 20 3 0 10 -9 16 -20z m88 -46 c2
-16 7 -33 11 -37 12 -12 62 3 54 16 -3 6 -1 7 5 3 8 -5 8 -13 0 -31 l-11 -25
-39 23 c-22 12 -44 30 -50 40 -5 11 -16 16 -24 13 -9 -3 -12 -1 -9 4 3 6 15
10 26 10 12 0 17 4 13 11 -4 7 -1 10 7 7 8 -2 15 -18 17 -34z m-1858 12 c0 -3
-4 -8 -10 -11 -5 -3 -10 -1 -10 4 0 6 5 11 10 11 6 0 10 -2 10 -4z m257 -74
c-4 -13 -5 -12 -6 5 0 12 -5 25 -11 28 -5 3 -10 11 -10 18 0 6 7 1 16 -11 8
-12 13 -30 11 -40z m1693 -27 c-19 -23 -29 -18 -17 9 7 15 16 21 21 16 6 -6 4
-15 -4 -25z m-1673 -12 c-3 -10 -5 -4 -5 12 0 17 2 24 5 18 2 -7 2 -21 0 -30z
m1753 -36 c0 -5 5 -5 10 -2 6 3 10 2 10 -4 0 -14 -18 -23 -22 -11 -3 10 -25
17 -57 19 -10 1 -11 4 -2 15 9 11 17 11 36 2 14 -6 25 -15 25 -19z m-1666
-123 c3 -8 2 -12 -4 -9 -6 3 -10 10 -10 16 0 14 7 11 14 -7z m4505 -99 c-6 -6
2 -16 23 -28 26 -14 28 -16 8 -11 -14 3 -32 13 -41 20 -8 8 -25 14 -37 14 -11
0 -23 3 -26 8 -2 4 15 7 39 7 28 0 40 -3 34 -10z m-6084 -45 c-10 -17 -45 -32
-45 -20 0 6 10 15 23 20 29 12 29 12 22 0z m282 4 c-3 -3 -12 -4 -19 -1 -8 3
-5 6 6 6 11 1 17 -2 13 -5z m1380 -16 c-3 -8 -6 -5 -6 6 -1 11 2 17 5 13 3 -3
4 -12 1 -19z m4531 -4 c16 -8 21 -14 11 -14 -9 0 -27 9 -40 21 -13 11 -18 18
-11 14 6 -3 24 -13 40 -21z m-5958 -12 c0 -5 -9 -17 -21 -28 -21 -19 -21 -19
-8 9 12 26 29 37 29 19z m6110 -40 c20 -9 29 -17 22 -20 -8 -2 -24 0 -35 6
-12 6 -40 17 -62 26 l-40 16 40 -7 c22 -3 56 -13 75 -21z m-6480 -2 c0 -5 -5
-10 -11 -10 -5 0 -7 5 -4 10 3 6 8 10 11 10 2 0 4 -4 4 -10z m560 -44 c0 -3
-4 -8 -10 -11 -5 -3 -10 -1 -10 4 0 6 5 11 10 11 6 0 10 -2 10 -4z m-570 -50
c0 -2 -9 -6 -20 -9 -11 -3 -18 -1 -14 4 5 9 34 13 34 5z m-220 -30 c0 -2 -7
-7 -16 -10 -8 -3 -12 -2 -9 4 6 10 25 14 25 6z m105 -46 c-25 -26 -54 -33 -39
-9 3 5 10 6 16 3 7 -5 9 -1 5 9 -4 11 -2 14 9 10 7 -3 14 0 14 6 0 6 5 11 12
11 6 0 -1 -13 -17 -30z m2052 -12 c-3 -8 -6 -5 -6 6 -1 11 2 17 5 13 3 -3 4
-12 1 -19z m-2107 -8 c0 -5 -4 -10 -10 -10 -5 0 -10 5 -10 10 0 6 5 10 10 10
6 0 10 -4 10 -10z m-45 -30 c-17 -34 -22 -37 -22 -15 0 8 4 15 9 15 5 0 7 4 4
9 -5 8 3 15 22 20 1 1 -4 -12 -13 -29z m84 -16 c-8 -10 -15 -12 -23 -4 -7 7
-4 14 10 24 22 17 32 3 13 -20z m-154 -21 c-17 -14 -42 -38 -57 -51 -15 -14
-38 -26 -50 -27 -16 -1 -22 -8 -21 -21 1 -10 -7 -24 -18 -32 -11 -7 -18 -16
-15 -20 2 -4 -5 -16 -16 -27 -19 -20 -19 -20 -14 8 3 16 1 25 -5 22 -5 -4 -7
-11 -4 -16 4 -5 1 -9 -4 -9 -6 0 -11 -10 -12 -22 0 -13 -3 -18 -5 -11 -3 7
-13 9 -22 6 -14 -5 -15 -3 -4 8 23 25 12 33 -13 9 -19 -18 -22 -26 -13 -32 10
-6 9 -8 -3 -8 -9 0 -20 -7 -23 -16 -7 -19 -19 -12 -22 12 -1 9 0 13 3 10 3 -3
25 15 49 39 24 25 48 45 54 45 5 0 10 3 10 8 0 4 17 16 37 27 20 11 52 35 70
53 18 18 33 29 32 25 -4 -23 3 -23 24 -1 21 23 55 47 67 48 3 0 -9 -12 -25
-27z m49 -45 c-10 -16 -22 -7 -17 13 4 15 8 17 14 8 4 -7 5 -17 3 -21z m6946
13 c0 -6 -4 -13 -10 -16 -5 -3 -10 1 -10 9 0 9 5 16 10 16 6 0 10 -4 10 -9z
m-7050 -48 c0 -10 -32 -43 -42 -43 -5 0 -1 11 9 25 17 23 33 32 33 18z m7420
-43 c13 -9 13 -10 0 -10 -8 0 -22 5 -30 10 -13 9 -13 10 0 10 8 0 22 -5 30
-10z m-625 -10 c3 -5 1 -10 -4 -10 -6 0 -11 5 -11 10 0 6 2 10 4 10 3 0 8 -4
11 -10z m823 -134 c-7 -8 -16 -12 -21 -9 -11 7 2 23 19 23 12 0 12 -2 2 -14z
m-7903 -6 c-3 -5 -16 -15 -28 -21 -22 -12 -22 -12 -3 10 19 21 43 30 31 11z
m-105 -135 c0 -8 -10 -19 -21 -26 -17 -9 -20 -8 -16 3 2 7 10 12 16 11 6 -2
11 4 11 12 0 8 2 15 5 15 3 0 5 -7 5 -15z m-5 -45 c-3 -5 -15 -10 -26 -10 -13
0 -18 -4 -13 -12 4 -6 3 -8 -4 -4 -5 3 -13 0 -15 -6 -4 -8 -6 -9 -6 -2 -1 14
18 30 44 37 11 2 21 5 23 6 2 0 0 -3 -3 -9z m-38 -72 c-3 -8 -6 -5 -6 6 -1 11
2 17 5 13 3 -3 4 -12 1 -19z m8326 -13 c-3 -9 -8 -14 -10 -11 -3 3 -2 9 2 15
9 16 15 13 8 -4z m-8380 -30 c-3 -9 -8 -14 -10 -11 -3 3 -2 9 2 15 9 16 15 13
8 -4z m-32 -38 c-10 -9 -11 -8 -5 6 3 10 9 15 12 12 3 -3 0 -11 -7 -18z m-33
-44 c-6 -16 -18 -35 -25 -43 -12 -13 -13 -12 -7 5 8 23 34 65 40 65 2 0 -2
-12 -8 -27z m2142 3 c0 -3 -4 -8 -10 -11 -5 -3 -10 -1 -10 4 0 6 5 11 10 11 6
0 10 -2 10 -4z m6505 -167 c4 -12 19 -33 34 -46 l26 -24 -32 22 c-18 13 -33
29 -33 36 0 7 -4 13 -10 13 -5 0 -10 5 -10 10 0 19 19 10 25 -11z m-8761 -49
c-6 -6 -10 -3 -10 10 0 13 4 16 10 10 7 -7 7 -13 0 -20z m-31 -45 c-7 -21 -12
-19 -10 4 0 11 5 18 9 15 4 -3 5 -11 1 -19z m8856 2 c11 -14 5 -27 -12 -27 -6
0 -7 3 -4 7 4 3 2 12 -4 20 -7 8 -8 13 -1 13 5 0 15 -6 21 -13z m-8893 -44
c-11 -11 -19 6 -11 24 8 17 8 17 12 0 3 -10 2 -21 -1 -24z m8944 -61 c-17 -6
-38 21 -26 34 8 9 14 7 23 -10 6 -11 8 -22 3 -24z m-6594 -59 c-10 -10 -19 5
-10 18 6 11 8 11 12 0 2 -7 1 -15 -2 -18z m6644 -15 c0 -5 -4 -8 -10 -8 -5 0
-10 10 -10 23 0 18 2 19 10 7 5 -8 10 -18 10 -22z m2 -50 c-7 -7 -12 -8 -12
-2 0 14 12 26 19 19 2 -3 -1 -11 -7 -17z m-5872 -18 c0 -5 -4 -10 -10 -10 -5
0 -10 5 -10 10 0 6 5 10 10 10 6 0 10 -4 10 -10z m-3425 -452 c-10 -13 -14
-16 -11 -8 3 8 9 24 13 35 4 11 8 14 11 7 2 -6 -4 -22 -13 -34z m4105 -63
c201 -12 206 -13 234 -54 14 -20 26 -40 26 -45 0 -4 13 -24 29 -44 16 -20 42
-60 58 -89 15 -29 50 -89 77 -135 115 -195 118 -201 104 -209 -7 -5 -35 -7
-63 -4 -201 15 -362 25 -495 30 -85 4 -158 9 -161 13 -6 6 -12 81 -36 461 l-6
93 79 -6 c43 -4 113 -8 154 -11z m1895 0 c138 -3 256 -8 263 -10 6 -3 12 -14
12 -25 0 -20 -4 -21 -77 -16 -141 10 -674 20 -875 17 -194 -3 -198 -3 -198 17
0 19 7 21 63 25 75 4 470 0 812 -8z m-929 -108 c4 -53 4 -97 1 -97 -6 0 -102
156 -113 183 -5 13 3 16 43 19 26 2 51 1 55 -2 4 -3 10 -49 14 -103z m-5090
55 c-17 -16 -18 -16 -5 5 7 12 15 20 18 17 3 -2 -3 -12 -13 -22z m5294 -34
l20 -22 0 22 c0 21 4 22 85 22 61 0 85 -4 86 -12 0 -10 2 -10 6 0 2 6 18 12
34 12 l29 0 0 -180 c0 -155 2 -181 16 -187 8 -3 20 -1 25 4 5 5 10 81 11 169
1 191 2 196 37 192 l26 -3 0 -192 c0 -182 -1 -194 -21 -213 -26 -26 -93 -29
-129 -6 l-25 16 0 173 0 174 -30 -5 -30 -4 -1 -82 c0 -44 0 -127 1 -183 l1
-103 -30 0 c-29 0 -29 0 -36 73 -4 39 -5 120 -3 179 4 97 2 109 -14 114 -26 8
-38 -3 -38 -37 0 -27 -3 -30 -27 -27 -22 2 -29 9 -31 31 -4 32 -29 47 -43 26
-5 -8 -9 -28 -9 -46 0 -26 8 -37 49 -66 58 -42 75 -83 69 -165 -4 -42 -10 -60
-28 -74 -31 -25 -45 -23 -59 9 -11 23 -10 29 5 40 10 7 18 28 19 53 2 34 -2
44 -27 63 -83 63 -88 72 -88 140 0 86 22 117 85 117 33 0 50 -6 65 -22z m538
-13 c21 -25 22 -34 22 -189 0 -158 -1 -163 -24 -185 -20 -19 -33 -22 -82 -19
l-59 3 -3 200 c-1 110 0 206 3 214 4 11 19 12 63 8 45 -5 62 -12 80 -32z m94
-152 c0 -98 0 -191 -1 -208 -3 -39 -17 -53 -39 -39 -15 10 -17 34 -19 205 -2
107 -1 200 2 207 2 6 16 12 30 12 l25 0 2 -177z m166 159 c9 -10 22 -27 29
-38 11 -18 12 -18 12 3 2 51 89 71 136 31 20 -18 26 -34 28 -68 1 -34 -2 -45
-13 -45 -28 -2 -50 16 -50 39 0 27 -22 40 -39 23 -23 -23 -12 -67 27 -102 20
-19 40 -35 44 -35 4 0 15 -14 24 -32 21 -40 16 -151 -8 -174 -22 -22 -88 -23
-121 -1 -24 16 -27 23 -27 77 0 57 1 60 24 60 20 0 25 -6 30 -45 6 -34 11 -45
26 -45 20 0 30 19 30 58 0 18 -15 39 -49 71 -26 25 -53 55 -59 66 -9 16 -11
-5 -12 -93 0 -106 -1 -114 -25 -137 -32 -33 -98 -35 -132 -3 -22 21 -23 26
-23 199 0 172 1 178 22 193 31 22 104 21 126 -2z m-6108 -46 c0 -2 -8 -10 -17
-17 -16 -13 -17 -12 -4 4 13 16 21 21 21 13z m-35 -73 c-9 -8 -18 -13 -21 -10
-8 8 19 36 29 30 4 -2 0 -11 -8 -20z m-29 -105 c4 -7 3 -8 -4 -4 -8 5 -10 -4
-7 -29 3 -21 1 -35 -6 -35 -5 0 -8 4 -5 9 4 5 1 11 -6 13 -10 4 -10 10 -1 31
14 30 18 32 29 15z m5287 -58 c3 -11 1 -22 -3 -25 -12 -7 -33 32 -25 45 9 14
21 5 28 -20z m-5322 -104 c-9 -11 -10 -20 -1 -36 14 -27 1 -50 -14 -24 -15 27
-13 47 4 61 20 17 25 16 11 -1z m6401 -67 c19 -10 24 -35 8 -41 -5 -1 -47 0
-92 3 -46 3 -267 7 -493 8 -370 1 -411 3 -422 18 -10 13 -10 18 0 25 17 12
977 -1 999 -13z m-6402 -23 c0 -3 -4 -8 -10 -11 -5 -3 -10 -1 -10 4 0 6 5 11
10 11 6 0 10 -2 10 -4z m-47 -36 c-3 -12 -8 -19 -11 -16 -5 6 5 36 12 36 2 0
2 -9 -1 -20z m37 -10 c0 -5 -7 -10 -16 -10 -8 0 -12 5 -9 10 3 6 10 10 16 10
5 0 9 -4 9 -10z m-28 -72 c-6 -6 -7 0 -4 19 5 21 7 23 10 9 2 -10 0 -22 -6
-28z m-6 -104 c-4 -9 -9 -15 -11 -12 -3 3 -3 13 1 22 4 9 9 15 11 12 3 -3 3
-13 -1 -22z m-124 -296 c-7 -7 -12 -8 -12 -2 0 14 12 26 19 19 2 -3 -1 -11 -7
-17z m-25 -80 c-3 -8 -6 -5 -6 6 -1 11 2 17 5 13 3 -3 4 -12 1 -19z m0 -50
c-3 -8 -6 -5 -6 6 -1 11 2 17 5 13 3 -3 4 -12 1 -19z m107 -12 c-3 -9 -10 -13
-15 -10 -5 3 -3 11 4 19 15 16 19 13 11 -9z m-118 -64 c-12 -12 -18 8 -10 35
l8 28 4 -28 c2 -16 1 -31 -2 -35z m-19 -94 c-3 -8 -6 -5 -6 6 -1 11 2 17 5 13
3 -3 4 -12 1 -19z m-30 -130 c-3 -7 -5 -2 -5 12 0 14 2 19 5 13 2 -7 2 -19 0
-25z m-13 -60 c-5 -13 -8 -33 -9 -45 0 -12 -3 -19 -7 -15 -10 10 2 82 14 82 5
0 6 -10 2 -22z m-107 -580 c-3 -8 -6 -5 -6 6 -1 11 2 17 5 13 3 -3 4 -12 1
-19z m-10 -90 c-3 -8 -6 -5 -6 6 -1 11 2 17 5 13 3 -3 4 -12 1 -19z m-30 -168
c1 -11 -2 -20 -5 -20 -4 0 -8 9 -9 20 -1 11 2 20 5 20 4 0 8 -9 9 -20z m-9
-125 c-3 -3 -9 2 -12 12 -6 14 -5 15 5 6 7 -7 10 -15 7 -18z m-18 -5 c0 -5 -5
-10 -11 -10 -5 0 -7 5 -4 10 3 6 8 10 11 10 2 0 4 -4 4 -10z m23 -60 c3 -11 1
-18 -4 -14 -5 3 -9 12 -9 20 0 20 7 17 13 -6z m-18 -39 c6 -19 4 -23 -8 -18
-11 4 -13 0 -10 -14 3 -10 10 -16 16 -12 6 4 1 -7 -11 -24 -12 -17 -22 -35
-22 -41 0 -5 -8 -16 -17 -23 -16 -12 -17 -12 -7 1 6 8 14 31 18 50 3 19 8 44
10 55 2 11 4 31 5 45 1 27 15 18 26 -19z m-50 -220 c-1 -37 -6 -74 -11 -82 -4
-8 -9 -25 -10 -39 -1 -14 -3 -26 -4 -27 -4 -4 -6 -14 -15 -61 -4 -23 -12 -45
-16 -48 -5 -3 -9 -15 -10 -27 0 -12 -3 -17 -5 -12 -2 6 3 44 11 85 9 41 17 84
19 95 9 73 20 115 28 115 5 0 5 6 0 16 -10 18 -5 54 7 54 4 0 7 -31 6 -69z
m-70 -320 c3 -5 2 -12 -3 -15 -5 -3 -9 1 -9 9 0 17 3 19 12 6z m-24 -94 c-10
-9 -11 -8 -5 6 3 10 9 15 12 12 3 -3 0 -11 -7 -18z m6249 -1137 c0 -5 -4 -10
-10 -10 -5 0 -10 5 -10 10 0 6 5 10 10 10 6 0 10 -4 10 -10z m2112 -250 c3
-16 3 -30 2 -30 -14 0 -33 14 -28 21 3 5 0 9 -5 9 -15 0 -14 27 2 33 18 7 24
0 29 -33z m557 -67 c33 -66 51 -114 48 -127 -3 -12 -10 -39 -16 -61 -5 -21
-13 -90 -17 -152 -4 -71 -11 -112 -17 -110 -24 8 -39 90 -47 262 -5 99 -12
206 -16 238 -4 34 -3 57 3 57 5 0 33 -48 62 -107z m-558 27 c17 -10 18 -13 5
-25 -8 -8 -23 -15 -34 -15 -17 0 -121 -35 -177 -59 -56 -25 -184 -70 -212 -76
-18 -4 -35 -11 -38 -16 -10 -15 -35 -10 -35 6 0 9 9 15 21 15 11 0 33 6 47 14
15 7 54 24 87 36 33 13 79 31 102 41 23 11 50 20 60 22 21 4 63 22 113 47 44
23 38 22 61 10z m-151 -168 c0 -9 7 -29 14 -44 31 -59 26 -70 -39 -95 -98 -38
-92 -39 -114 9 -10 24 -21 50 -24 58 -6 21 11 50 29 50 8 0 31 7 52 17 20 9
40 17 44 17 3 1 10 4 14 8 10 11 24 -1 24 -20z m287 -64 c-3 -8 -6 -5 -6 6 -1
11 2 17 5 13 3 -3 4 -12 1 -19z m-243 -173 c-6 -16 -30 -13 -64 6 -10 6 -1 8
27 9 34 0 41 -3 37 -15z m408 -187 c-7 -7 -10 -5 -7 8 5 29 6 30 12 16 3 -8 1
-18 -5 -24z m34 -60 c2 -4 -2 -11 -11 -15 -22 -12 -108 -1 -113 15 -3 10 10
13 58 10 34 -1 64 -6 66 -10z m-590 -160 c-9 -24 -12 -26 -18 -11 -11 30 -9
39 10 39 16 0 17 -4 8 -28z m14 -97 c7 -14 6 -28 -4 -52 l-13 -32 -5 39 c-5
36 -1 64 8 64 2 0 8 -9 14 -19z m-2220 -301 c0 -5 -4 -10 -10 -10 -5 0 -10 5
-10 10 0 6 5 10 10 10 6 0 10 -4 10 -10z m3320 -250 c-1 -12 -4 -11 -15 4 -8
10 -12 23 -8 29 7 11 23 -12 23 -33z m-53 -442 c-2 -13 -4 -5 -4 17 -1 22 1
32 4 23 2 -10 2 -28 0 -40z m213 -75 c35 -57 35 -59 38 -188 l2 -130 -25 30
c-14 17 -25 35 -25 40 -1 6 -9 76 -19 158 -9 81 -15 147 -12 147 4 0 22 -26
41 -57z"/>
<path d="M7401 13321 c-9 -6 -10 -14 -5 -24 6 -10 14 -13 23 -8 9 6 10 14 5
24 -6 10 -14 13 -23 8z"/>
<path d="M5266 13124 c-7 -17 0 -34 14 -34 15 0 19 28 6 40 -10 8 -15 6 -20
-6z"/>
<path d="M5402 13108 c-7 -7 -12 -16 -12 -21 0 -5 7 -1 16 8 9 9 14 18 12 20
-2 3 -10 -1 -16 -7z"/>
<path d="M7280 13008 c-7 -18 -9 -19 -9 -5 -1 19 -16 23 -26 7 -3 -5 -24 -10
-46 -10 -21 0 -39 -4 -39 -10 0 -5 -9 -10 -20 -10 -11 0 -20 -5 -20 -11 0 -6
-6 -9 -12 -6 -7 2 -24 0 -37 -5 -15 -5 -28 -4 -38 4 -9 7 -17 8 -21 2 -4 -5
-20 -10 -37 -12 -16 -2 -32 -8 -36 -13 -3 -5 -23 -8 -45 -5 -43 5 -124 -24
-124 -45 0 -8 -4 -8 -12 -1 -15 11 -58 8 -108 -7 -45 -14 -47 -14 -24 5 18 15
18 15 -3 10 -13 -4 -33 -9 -44 -12 -14 -4 -19 -2 -15 5 10 15 1 14 -33 -3 -24
-13 -31 -13 -49 0 -14 10 -23 11 -27 4 -4 -7 -19 -8 -36 -5 -18 4 -36 2 -44
-5 -8 -6 -20 -8 -26 -4 -8 4 -9 3 -5 -4 4 -7 2 -12 -3 -12 -6 0 -11 7 -11 16
0 14 -2 15 -17 3 -9 -8 -19 -13 -22 -12 -3 1 -5 -6 -3 -15 2 -15 1 -15 -7 -2
-6 8 -8 23 -5 33 5 16 2 18 -18 11 -12 -4 -27 -6 -33 -5 -16 2 -75 2 -135 -2
-30 -2 -67 1 -83 6 -19 6 -32 5 -45 -4 -14 -11 -15 -11 -4 1 16 19 15 31 -3
24 -8 -4 -15 -1 -15 5 0 6 5 11 12 11 6 0 8 3 4 7 -4 5 -13 0 -20 -9 -7 -9
-21 -17 -32 -17 -10 0 -34 -3 -53 -7 -28 -5 -33 -4 -29 8 7 16 -28 43 -37 28
-3 -5 3 -13 12 -19 10 -6 13 -11 8 -11 -6 0 -16 5 -21 10 -14 14 -47 1 -40
-15 2 -7 -1 -12 -7 -12 -36 1 -58 -4 -53 -12 4 -5 -4 -7 -16 -3 -13 3 -19 1
-15 -5 5 -7 0 -9 -13 -6 -10 3 -18 8 -17 12 7 22 -50 6 -82 -23 -20 -17 -23
-18 -18 -3 6 16 5 16 -18 1 -14 -9 -25 -23 -25 -32 0 -12 -3 -13 -11 -5 -9 9
-15 8 -26 -3 -17 -16 -37 -19 -27 -3 5 8 1 8 -14 0 -12 -6 -24 -16 -27 -21 -4
-6 -10 -8 -15 -5 -12 7 -50 -12 -68 -34 -12 -14 -13 -14 -8 4 5 15 -2 11 -24
-13 -16 -18 -30 -30 -30 -26 0 3 -7 -1 -15 -10 -8 -8 -15 -19 -15 -24 0 -5 -7
-15 -15 -22 -8 -7 -13 -16 -10 -20 3 -5 0 -10 -7 -12 -8 -3 -8 -9 0 -24 7 -12
12 -14 12 -5 0 11 3 11 15 1 20 -17 20 -51 0 -44 -11 5 -13 2 -9 -10 3 -9 2
-16 -4 -16 -5 0 -13 -16 -16 -35 -4 -19 -11 -35 -17 -35 -6 0 -7 -6 -2 -12 15
-25 22 -81 11 -89 -4 -3 -1 -14 7 -25 13 -16 16 -17 25 -4 9 13 10 13 10 0 0
-11 13 -15 48 -17 26 -1 58 -2 72 -3 14 0 32 0 40 1 8 1 30 -1 48 -5 25 -6 32
-4 32 8 0 13 8 15 43 9 23 -3 52 -6 65 -6 12 1 22 -3 22 -7 0 -5 12 -13 28
-18 l27 -10 -30 -13 c-32 -15 -135 -19 -135 -6 0 5 -4 6 -9 2 -5 -3 -12 -1
-16 4 -3 6 -13 7 -22 4 -11 -4 -14 -3 -9 5 5 8 0 12 -13 12 -26 0 -28 -28 -3
-37 9 -3 28 -14 42 -24 25 -17 112 -52 193 -78 89 -29 323 -22 343 11 3 4 9 6
13 3 5 -2 36 6 70 19 33 14 61 22 61 18 0 -3 5 -1 12 6 7 7 26 12 43 12 17 0
36 5 43 12 9 9 12 8 12 -5 0 -18 15 -23 25 -7 3 5 12 7 19 4 8 -3 16 0 19 8 2
7 3 6 2 -3 -3 -21 21 -15 55 12 14 12 19 18 13 14 -7 -3 -13 -1 -13 4 0 6 6
11 14 11 14 0 58 52 69 84 4 10 2 25 -5 34 -11 13 -10 15 4 9 10 -3 20 -1 24
5 5 7 2 8 -6 3 -9 -6 -10 -2 -4 16 4 13 7 30 7 37 0 6 4 12 9 12 5 0 7 4 4 9
-3 5 1 14 9 21 8 7 15 24 15 39 1 14 10 37 21 51 21 24 21 24 35 5 13 -17 16
-18 25 -5 8 12 9 10 4 -7 -6 -20 -4 -21 24 -10 16 6 27 15 24 21 -3 5 -1 6 6
2 6 -4 9 -11 6 -15 -2 -5 6 -13 18 -18 16 -7 23 -21 25 -43 1 -17 9 -39 18
-47 8 -9 13 -22 10 -29 -3 -8 -2 -14 2 -14 4 0 18 -27 31 -59 13 -33 41 -78
61 -100 38 -41 67 -54 56 -26 -7 19 11 19 48 0 23 -12 31 -13 37 -3 5 8 11 9
21 1 7 -6 29 -14 48 -18 19 -4 40 -11 46 -17 12 -9 21 -11 101 -27 91 -18 236
10 372 71 50 22 62 31 51 38 -8 6 -10 10 -4 10 5 0 19 7 30 15 18 13 16 14
-22 11 -23 -2 -46 -6 -53 -10 -7 -5 -9 -1 -5 8 3 9 2 16 -4 16 -6 0 -13 -6
-15 -12 -3 -8 -6 -8 -6 -2 -1 6 8 19 19 29 15 13 17 22 9 36 -9 17 -6 19 33
19 48 0 74 -12 64 -29 -4 -6 -2 -19 3 -28 8 -15 11 -15 12 -3 1 8 1 18 0 22 0
4 5 5 13 2 7 -3 19 2 26 11 7 8 18 15 25 15 6 0 20 9 30 20 10 11 25 19 34 18
10 -2 15 3 13 13 -1 9 4 19 13 22 19 8 14 105 -6 118 -8 5 -9 9 -3 9 13 0 8
120 -6 166 -10 30 -80 106 -118 128 -11 6 -45 26 -76 44 -31 18 -68 35 -83 38
-16 3 -37 8 -48 11 -11 3 -41 7 -68 9 -59 3 -89 13 -82 25 4 5 4 9 0 9 -3 0
-10 -10 -15 -22z m-1106 -126 c3 -5 -1 -9 -9 -9 -8 0 -15 4 -15 9 0 4 4 8 9 8
6 0 12 -4 15 -8z m-60 -10 c3 -5 -1 -9 -9 -9 -8 0 -15 4 -15 9 0 4 4 8 9 8 6
0 12 -4 15 -8z m1314 -146 c-7 -8 -15 -12 -17 -11 -5 6 10 25 20 25 5 0 4 -6
-3 -14z m-55 -111 c27 -2 54 -9 61 -14 7 -6 16 -8 19 -4 4 3 7 1 7 -6 0 -8 -7
-11 -15 -7 -8 3 -15 1 -15 -5 0 -5 -14 -2 -30 6 -17 9 -52 17 -77 19 -26 1
-49 8 -51 15 -3 8 5 10 25 6 15 -3 50 -8 76 -10z m151 -61 c7 -19 -1 -18 -26
5 l-20 20 20 -6 c11 -3 23 -11 26 -19z m-1734 -4 c0 -14 -31 -34 -38 -24 -11
16 -72 1 -72 -17 0 -6 -7 -6 -19 1 -13 7 -20 7 -23 -1 -2 -5 -12 -12 -23 -14
-11 -2 -21 -4 -22 -4 -2 -1 -5 0 -6 2 -2 1 -11 -4 -21 -12 -9 -8 -19 -12 -22
-9 -5 5 60 49 81 54 6 2 30 9 55 17 49 16 110 20 110 7z m1628 -103 c-1 -1
-13 -8 -25 -14 -19 -11 -21 -10 -17 2 5 11 2 13 -10 9 -12 -5 -15 -2 -10 10 4
10 13 15 20 12 7 -3 16 0 20 6 4 7 10 5 16 -6 6 -10 8 -18 6 -19z m-333 -11
c31 -29 20 -39 -35 -30 l-41 7 22 23 c12 13 24 24 25 24 2 0 15 -11 29 -24z
m-1081 -27 c40 -31 33 -46 -25 -53 -28 -4 -53 -5 -56 -2 -2 2 2 17 11 34 8 16
12 32 9 36 -17 16 38 3 61 -15z m-337 -14 c-2 -5 3 -15 10 -20 11 -9 10 -11
-8 -12 -12 -1 -29 6 -36 15 -8 9 -12 11 -8 5 4 -9 1 -11 -10 -7 -11 5 -13 10
-5 19 12 15 62 15 57 0z m118 -75 c-3 -5 -11 -10 -16 -10 -6 0 -7 5 -4 10 3 6
11 10 16 10 6 0 7 -4 4 -10z m65 6 c0 -2 -7 -7 -16 -10 -8 -3 -12 -2 -9 4 6
10 25 14 25 6z"/>
<path d="M5686 12986 c3 -8 13 -17 21 -20 25 -10 23 -3 -3 17 -18 13 -22 14
-18 3z"/>
<path d="M5860 12919 c0 -5 5 -7 10 -4 6 3 10 8 10 11 0 2 -4 4 -10 4 -5 0
-10 -5 -10 -11z"/>
<path d="M5555 12900 c3 -5 11 -10 16 -10 6 0 7 5 4 10 -3 6 -11 10 -16 10 -6
0 -7 -4 -4 -10z"/>
<path d="M7826 12824 c-9 -22 3 -32 14 -14 12 19 12 30 1 30 -5 0 -12 -7 -15
-16z"/>
<path d="M7776 12777 c3 -10 9 -15 12 -12 3 3 0 11 -7 18 -10 9 -11 8 -5 -6z"/>
<path d="M7687 12379 c7 -7 15 -10 18 -7 3 3 -2 9 -12 12 -14 6 -15 5 -6 -5z"/>
<path d="M6246 12194 c-5 -14 -4 -15 9 -4 17 14 19 20 6 20 -5 0 -12 -7 -15
-16z"/>
<path d="M6905 11989 c-4 -6 -5 -12 -2 -15 2 -3 7 2 10 11 7 17 1 20 -8 4z"/>
<path d="M6970 11956 c0 -2 7 -9 15 -16 9 -7 15 -8 15 -2 0 5 -7 12 -15 16 -8
3 -15 4 -15 2z"/>
<path d="M7805 11659 c-9 -14 -2 -20 14 -10 8 6 9 11 3 15 -6 3 -14 1 -17 -5z"/>
<path d="M7062 11540 c0 -14 2 -19 5 -12 2 6 2 18 0 25 -3 6 -5 1 -5 -13z"/>
<path d="M5265 11530 c-3 -5 -1 -10 4 -10 6 0 11 5 11 10 0 6 -2 10 -4 10 -3
0 -8 -4 -11 -10z"/>
<path d="M5890 11505 c0 -8 4 -15 10 -15 5 0 7 7 4 15 -4 8 -8 15 -10 15 -2 0
-4 -7 -4 -15z"/>
<path d="M5790 10996 c0 -2 7 -7 16 -10 8 -3 12 -2 9 4 -6 10 -25 14 -25 6z"/>
<path d="M6180 10969 c0 -5 5 -7 10 -4 6 3 10 8 10 11 0 2 -4 4 -10 4 -5 0
-10 -5 -10 -11z"/>
<path d="M6310 10969 c0 -4 10 -6 21 -4 32 6 34 13 4 13 -14 0 -25 -4 -25 -9z"/>
<path d="M6385 10970 c-3 -5 -1 -10 4 -10 6 0 11 5 11 10 0 6 -2 10 -4 10 -3
0 -8 -4 -11 -10z"/>
<path d="M6548 10973 c7 -3 16 -2 19 1 4 3 -2 6 -13 5 -11 0 -14 -3 -6 -6z"/>
<path d="M6887 10868 c-17 -12 -27 -15 -27 -8 0 8 -4 9 -12 3 -7 -5 -26 -8
-42 -7 -17 2 -41 -5 -59 -18 l-29 -21 12 24 c12 22 12 23 -3 10 -13 -10 -17
-10 -17 -1 0 10 -4 9 -16 -1 -19 -15 -44 -21 -44 -9 0 15 -85 7 -97 -9 -12
-14 -14 -14 -27 2 -9 12 -16 15 -21 7 -5 -8 -11 -7 -23 2 -13 11 -15 10 -9 -5
5 -14 3 -16 -12 -8 -19 11 -66 9 -78 -2 -3 -4 -11 -7 -17 -7 -6 0 -4 5 4 10
17 11 1 13 -24 4 -11 -4 -14 -13 -10 -29 4 -18 1 -25 -15 -30 -12 -3 -19 -10
-16 -15 3 -5 1 -11 -5 -15 -6 -3 -13 1 -16 9 -3 9 -10 16 -15 16 -4 0 -5 -8
-2 -17 5 -13 3 -15 -13 -8 -25 10 -68 8 -72 -5 -2 -5 -9 -7 -17 -4 -7 3 -16 0
-20 -5 -3 -6 -9 -9 -13 -7 -4 2 -8 -6 -8 -19 -1 -16 3 -22 11 -18 8 2 23 -5
34 -16 12 -12 26 -21 31 -21 6 0 10 -8 10 -18 0 -15 8 -19 38 -20 20 -1 47 -2
59 -3 13 -1 21 -4 18 -9 -2 -4 9 -20 26 -36 24 -23 29 -25 23 -9 -7 20 -7 20
16 0 13 -11 20 -14 15 -6 -5 10 -4 12 3 7 7 -4 12 -13 12 -20 0 -8 7 -19 15
-26 10 -9 15 -9 15 -1 0 6 -4 11 -10 11 -5 0 -10 9 -10 20 0 20 1 20 25 3 13
-10 28 -27 31 -38 7 -19 7 -19 13 -1 6 16 10 14 31 -17 13 -19 31 -39 40 -45
14 -8 16 -6 12 19 -5 37 5 38 19 2 8 -21 12 -24 19 -13 7 12 11 12 26 -1 16
-13 16 -12 6 8 -8 15 -9 24 -2 28 14 9 40 -1 40 -16 0 -8 -5 -7 -17 2 -15 11
-14 10 1 -9 20 -23 32 -30 21 -12 -3 6 -2 10 3 10 5 0 12 9 15 21 3 11 11 19
19 18 26 -3 36 1 34 17 0 9 5 19 12 21 7 3 12 -3 12 -13 0 -16 2 -15 16 4 18
27 31 28 37 5 4 -16 5 -16 6 1 1 11 6 16 15 13 11 -4 13 -1 9 11 -3 9 -3 14 2
10 4 -4 16 3 27 15 11 12 17 17 14 10 -4 -7 1 -11 13 -10 12 1 17 6 13 17 -5
13 -3 13 11 1 15 -12 17 -11 17 8 0 11 4 21 10 21 15 0 70 61 64 71 -2 5 2 22
11 39 8 16 13 30 9 30 -4 0 -1 7 6 15 7 8 9 16 4 16 -31 5 -120 3 -124 -2 -3
-4 -14 -1 -24 7 -11 8 -14 14 -8 14 7 0 12 7 12 15 0 8 4 15 10 15 13 0 2 27
-14 33 -6 3 -24 -4 -39 -15z"/>
<path d="M6001 10713 c-1 -26 14 -31 23 -7 3 8 2 13 -3 9 -5 -3 -12 1 -14 7
-3 7 -6 3 -6 -9z"/>
<path d="M7240 10724 c0 -11 34 -33 49 -34 9 0 6 7 -9 20 -23 20 -40 26 -40
14z"/>
<path d="M6089 10667 c6 -8 7 -17 3 -22 -4 -4 4 -2 17 5 19 10 21 14 10 21
-23 14 -43 11 -30 -4z"/>
<path d="M7040 10664 c0 -14 3 -14 15 -4 8 7 15 14 15 16 0 2 -7 4 -15 4 -8 0
-15 -7 -15 -16z"/>
<path d="M6150 10645 c0 -8 2 -15 4 -15 2 0 6 7 10 15 3 8 1 15 -4 15 -6 0
-10 -7 -10 -15z"/>
<path d="M5910 10629 c0 -17 3 -18 20 -9 11 6 20 12 20 14 0 2 -9 6 -20 9 -15
4 -20 0 -20 -14z"/>
<path d="M6190 10613 c0 -7 33 -32 43 -33 16 0 5 16 -18 27 -14 6 -25 9 -25 6z"/>
<path d="M5960 10575 l-25 -15 30 6 c33 7 58 24 35 24 -8 -1 -26 -7 -40 -15z"/>
<path d="M7150 10496 c0 -2 7 -7 16 -10 8 -3 12 -2 9 4 -6 10 -25 14 -25 6z"/>
<path d="M6025 10440 c-3 -5 -1 -10 4 -10 6 0 11 5 11 10 0 6 -2 10 -4 10 -3
0 -8 -4 -11 -10z"/>
<path d="M6200 10390 c0 -5 5 -10 11 -10 5 0 7 5 4 10 -3 6 -8 10 -11 10 -2 0
-4 -4 -4 -10z"/>
<path d="M6203 10359 c3 -15 21 -13 25 3 3 10 2 10 -6 -1 -7 -9 -11 -10 -15
-2 -4 7 -5 8 -4 0z"/>
<path d="M6462 10328 c-14 -14 -16 -28 -3 -28 9 0 24 30 18 36 -2 2 -9 -2 -15
-8z"/>
<path d="M6590 10321 c0 -5 5 -13 10 -16 6 -3 10 -2 10 4 0 5 -4 13 -10 16 -5
3 -10 2 -10 -4z"/>
<path d="M7241 10030 c-13 -11 -19 -20 -14 -20 6 0 18 9 28 20 23 25 17 25
-14 0z"/>
<path d="M6910 7145 c0 -123 2 -147 16 -152 27 -10 32 9 37 132 4 132 -2 165
-33 165 -19 0 -20 -6 -20 -145z"/>
<path d="M7183 7283 c-10 -3 -13 -43 -13 -149 l0 -144 24 0 c13 0 26 6 28 13
7 19 1 264 -6 276 -8 12 -13 12 -33 4z"/>
<path d="M7750 14133 c0 -4 7 -16 14 -26 12 -15 14 -15 19 -2 4 9 -2 19 -13
25 -11 6 -20 7 -20 3z"/>
<path d="M4700 12175 c0 -8 4 -15 10 -15 5 0 7 7 4 15 -4 8 -8 15 -10 15 -2 0
-4 -7 -4 -15z"/>
<path d="M4643 11611 c7 -19 18 -36 25 -39 20 -6 14 15 -13 45 l-26 28 14 -34z"/>
<path d="M4098 10095 c-21 -14 -38 -22 -38 -18 0 4 -7 -2 -15 -13 -21 -28 -18
-51 9 -69 23 -15 28 -15 90 15 l65 32 -23 36 c-29 46 -42 49 -88 17z"/>
<path d="M3348 9779 c-21 -11 -38 -22 -38 -24 0 -3 9 -1 20 5 11 6 25 8 30 5
5 -3 11 -1 15 5 4 6 11 7 17 4 6 -4 8 -2 4 4 -3 5 0 13 6 15 9 4 8 5 -2 5 -8
0 -32 -9 -52 -19z"/>
<path d="M3346 9733 c-6 -14 -5 -15 5 -6 7 7 10 15 7 18 -3 3 -9 -2 -12 -12z"/>
<path d="M3272 9690 c-8 -13 -8 -20 -2 -20 6 0 13 7 17 15 9 24 -1 27 -15 5z"/>
<path d="M3218 9693 c10 -4 10 -8 1 -19 -6 -8 -7 -14 -2 -14 5 0 16 9 26 20
16 19 16 20 -11 19 -15 0 -21 -3 -14 -6z"/>
<path d="M3345 9690 c3 -5 8 -10 11 -10 2 0 4 5 4 10 0 6 -5 10 -11 10 -5 0
-7 -4 -4 -10z"/>
<path d="M3149 9653 c-13 -16 -12 -17 4 -4 9 7 17 15 17 17 0 8 -8 3 -21 -13z"/>
<path d="M3105 9641 c-3 -6 1 -11 9 -11 9 0 13 -6 10 -13 -3 -9 2 -13 13 -12
31 4 73 24 73 36 0 8 -4 9 -13 0 -8 -6 -17 -8 -21 -4 -4 4 -11 1 -16 -7 -7
-12 -12 -11 -28 4 -13 11 -22 14 -27 7z"/>
<path d="M2957 9556 c-4 -10 -1 -13 9 -9 7 3 14 9 14 14 0 14 -17 10 -23 -5z"/>
<path d="M2206 9165 c-11 -8 -15 -15 -9 -15 6 0 16 7 23 15 16 19 11 19 -14 0z"/>
<path d="M10950 5918 c0 -4 7 -8 15 -8 8 0 15 4 15 8 0 5 -7 9 -15 9 -8 0 -15
-4 -15 -9z"/>
<path d="M10885 5810 c-7 -21 -3 -38 22 -108 23 -61 25 -47 4 29 -20 75 -18
89 11 81 14 -3 19 -1 14 6 -12 19 -44 14 -51 -8z"/>
<path d="M10955 5800 c4 -6 11 -8 16 -5 14 9 11 15 -7 15 -8 0 -12 -5 -9 -10z"/>
<path d="M11006 5648 c11 -39 33 -75 34 -57 1 38 -13 79 -27 79 -10 0 -12 -6
-7 -22z"/>
<path d="M10996 5517 c3 -10 9 -15 12 -12 3 3 0 11 -7 18 -10 9 -11 8 -5 -6z"/>
<path d="M11015 5470 c12 -42 35 -70 57 -70 11 0 27 -8 34 -17 7 -10 15 -15
19 -11 11 11 -28 57 -53 64 -12 3 -32 18 -43 33 l-21 26 7 -25z"/>
<path d="M11037 5337 c-3 -8 7 -13 26 -14 32 -3 33 -1 0 15 -16 9 -22 9 -26
-1z"/>
<path d="M11110 5162 c1 -18 17 -30 42 -30 15 0 25 4 23 8 -7 11 -65 31 -65
22z"/>
<path d="M11183 5049 c3 -8 14 -39 24 -69 11 -34 18 -48 20 -35 5 29 -20 108
-36 113 -8 3 -11 -1 -8 -9z"/>
<path d="M11140 4993 c0 -5 7 -18 15 -29 15 -18 15 -18 13 5 -3 23 -28 44 -28
24z"/>
<path d="M11190 4762 c0 -11 7 -25 15 -32 12 -10 15 -9 15 8 0 11 -7 25 -15
32 -12 10 -15 9 -15 -8z"/>
<path d="M11251 4694 c0 -11 3 -14 6 -6 3 7 2 16 -1 19 -3 4 -6 -2 -5 -13z"/>
<path d="M11209 4652 c-3 -20 -2 -29 4 -23 5 5 7 19 5 32 -3 20 -5 19 -9 -9z"/>
<path d="M11260 4518 c-28 -47 -25 -58 5 -18 24 32 31 50 20 50 -3 0 -14 -15
-25 -32z"/>
<path d="M11297 4473 c-4 -3 -7 -11 -7 -17 0 -6 5 -5 12 2 6 6 9 14 7 17 -3 3
-9 2 -12 -2z"/>
<path d="M11450 3021 c0 -10 30 -24 37 -17 3 2 -5 9 -16 16 -12 6 -21 7 -21 1z"/>
<path d="M9896 27 c3 -10 9 -15 12 -12 3 3 0 11 -7 18 -10 9 -11 8 -5 -6z"/>
<path d="M11616 15 c-3 -8 -1 -15 4 -15 6 0 10 7 10 15 0 8 -2 15 -4 15 -2 0
-6 -7 -10 -15z"/>
</g>
</svg>
